<svg xmlns="http://www.w3.org/2000/svg" xml:space="preserve" data-id="lg_uIXF4TnjL6EKrohoNU" data-version="1" viewBox="719.5 -0.5 561 192"><g data-padding="20"><g transform="translate(10 3.41)scale(.96429)"><rect width="355.186" height="77.97" x="461.206" y="-349.7" fill="none" rx="0" ry="0" transform="matrix(.98 0 0 .98 506.54 412.02)"/><path fill="#2ecc40" d="M988.963 100.65v-6.183h4.734v35.054q0 3.244-1.401 6.086t-3.793 4.988q-2.381 2.147-5.42 3.362-3.047 1.225-6.32 1.225-3.518 0-6.801-1.607-3.283-1.608-5.694-4.283-2.42-2.666-3.43-5.91l4.36-2q.638 2.54 2.412 4.578 1.773 2.048 4.194 3.254 2.42 1.195 4.959 1.195 2.332 0 4.508-.862 2.185-.863 3.92-2.352 1.744-1.48 2.763-3.46 1.01-1.98 1.01-4.214v-7.467q-1.754 3.175-4.753 5.135-2.99 1.96-6.948 1.96-3.548 0-6.674-1.382-3.126-1.391-5.498-3.841-2.362-2.45-3.695-5.665-1.342-3.204-1.342-6.89 0-3.684 1.342-6.918 1.333-3.224 3.695-5.684 2.372-2.45 5.498-3.832 3.126-1.391 6.674-1.391 3.959 0 6.948 1.95 2.999 1.94 4.753 5.155m-11.661 23.903q3.518 0 6.066-1.823 2.558-1.823 3.94-4.841 1.38-3.01 1.38-6.517 0-3.626-1.4-6.615t-3.97-4.802q-2.567-1.803-6.016-1.803t-6.272 1.773-4.48 4.783q-1.655 3.008-1.655 6.664 0 3.645 1.686 6.644 1.695 2.99 4.517 4.763 2.823 1.774 6.204 1.774m29.243 3.724h-4.733v-33.81h4.733v4.665q1.793-2.568 4.665-4.097 2.87-1.52 6.252-1.52 1.96 0 3.793.51l-1.93 4.695q-1.422-.441-2.774-.441-2.734 0-5.018 1.352t-3.636 3.626q-1.352 2.264-1.352 5.038Zm32.065.87q-4.665 0-8.507-2.4t-6.125-6.44q-2.273-4.036-2.273-8.936 0-3.724 1.313-6.948 1.323-3.234 3.636-5.684t5.39-3.842q3.077-1.382 6.566-1.382 3.753 0 6.909 1.49 3.165 1.49 5.449 4.155 2.273 2.675 3.44 6.252 1.175 3.587.97 7.742h-28.676q.41 3.215 2.048 5.753t4.194 4.008q2.548 1.47 5.665 1.5 3.38 0 6.095-1.755 2.725-1.754 4.38-4.831l4.803 1.107q-2.03 4.499-6.115 7.36-4.097 2.852-9.163 2.852m-12.044-19.806h24.039q-.235-3.146-1.911-5.772-1.666-2.617-4.302-4.185-2.646-1.577-5.782-1.577-3.146 0-5.753 1.538t-4.263 4.155q-1.656 2.627-2.028 5.84m49.127 19.807q-4.665 0-8.497-2.401-3.841-2.401-6.125-6.44t-2.283-8.936q0-3.724 1.323-6.948 1.313-3.234 3.636-5.684 2.313-2.45 5.39-3.842 3.077-1.382 6.556-1.382 3.753 0 6.919 1.49 3.155 1.49 5.439 4.155 2.283 2.675 3.45 6.252 1.166 3.587.96 7.742h-28.665q.402 3.215 2.048 5.753 1.637 2.538 4.185 4.008 2.557 1.47 5.664 1.5 3.38 0 6.105-1.755t4.38-4.831l4.803 1.107q-2.03 4.499-6.125 7.36-4.087 2.852-9.163 2.852m-12.034-19.806h24.039q-.235-3.146-1.911-5.772-1.676-2.617-4.312-4.185-2.636-1.577-5.782-1.577t-5.743 1.538q-2.607 1.539-4.263 4.155-1.656 2.627-2.028 5.84m64.063-1.998v20.933h-4.733v-19.982q0-2.774-1.353-5.038-1.352-2.273-3.616-3.626t-5.037-1.352q-2.744 0-5.028 1.352t-3.635 3.626q-1.353 2.264-1.353 5.038v19.982h-4.733v-33.81h4.733v4.665q1.794-2.568 4.675-4.097 2.87-1.52 6.252-1.52 3.822 0 6.958 1.863 3.146 1.862 5.008 4.998 1.862 3.146 1.862 6.968m20.972 21.805q-4.665 0-8.506-2.401-3.832-2.401-6.115-6.44t-2.284-8.936q0-3.724 1.313-6.948 1.323-3.234 3.636-5.684 2.323-2.45 5.4-3.842 3.067-1.382 6.556-1.382 3.754 0 6.91 1.49 3.165 1.49 5.448 4.155 2.283 2.675 3.45 6.252 1.166 3.587.96 7.742h-28.675q.412 3.215 2.048 5.753t4.195 4.008q2.548 1.47 5.664 1.5 3.38 0 6.106-1.755 2.714-1.754 4.37-4.831l4.802 1.107q-2.028 4.499-6.115 7.36-4.096 2.852-9.163 2.852m-12.034-19.806h24.04q-.246-3.146-1.912-5.772-1.676-2.617-4.312-4.185-2.636-1.577-5.782-1.577t-5.752 1.538q-2.597 1.539-4.254 4.155-1.656 2.627-2.028 5.84m62.2-8.554-.176-6.321h4.733v33.81h-4.733l-.167-6.292q-1.656 3.215-4.635 5.184-2.97 1.98-7.095 1.98-3.724 0-6.968-1.401t-5.714-3.871-3.851-5.714q-1.392-3.244-1.392-6.968 0-3.645 1.372-6.86t3.793-5.644q2.41-2.44 5.606-3.803 3.194-1.372 6.85-1.372 4.224 0 7.37 2.01 3.145 2.018 5.007 5.262m-12.171 23.765q3.616 0 6.213-1.774 2.607-1.774 4.008-4.782t1.4-6.625q0-3.724-1.41-6.713-1.421-3-4.028-4.753t-6.183-1.754q-3.587 0-6.547 1.773-2.96 1.774-4.704 4.783-1.734 3.008-1.734 6.664 0 3.685 1.793 6.674t4.743 4.753q2.96 1.754 6.449 1.754m28.224 3.724h-4.734v-33.81h4.734v4.665q1.793-2.568 4.664-4.097 2.882-1.52 6.263-1.52 1.96 0 3.782.51l-1.93 4.695q-1.411-.441-2.764-.441-2.744 0-5.027 1.352t-3.636 3.626q-1.352 2.264-1.352 5.038Zm36.72-33.81V99.2h-8.075l-.04 29.077h-4.733l.04-29.077h-6.125v-4.733h6.125l-.04-10.623h4.734l.039 10.623Zm35.535 12.877v20.933h-4.733v-19.982q0-2.774-1.353-5.038-1.352-2.273-3.616-3.626t-5.037-1.352q-2.744 0-5.028 1.352-2.273 1.353-3.626 3.626-1.352 2.264-1.352 5.038v19.982h-4.733V77.562h4.733v21.57q1.784-2.568 4.665-4.097 2.87-1.52 6.252-1.52 3.822 0 6.968 1.863t4.998 4.998q1.862 3.146 1.862 6.968"/><path fill="#2ecc40" fill-rule="evenodd" d="m827.707 14.414.1-.05.05-.025.077-.076.05-.05q0-.05.05-.076v-.1l.026-.026v-.075l.025-.05v-.102l.025-.05v-.151l.025-.126.1-.076-.074-.05v.126l-1.437 1.083Zm.554-1.058c.983.353 1.286-.554 1.764-1.134l.126-.1.126-.127Zm33.768 133.56c23.008-27.317 37.422-58.44 40.37-94.374a73.1 73.1 0 0 0-3.678-31.374c-1.21-3.326-2.218-6.88-5.192-9.223q-4.99-4.032-10.76-6.955a45.36 45.36 0 0 0-26.31-4.763c-8.97 1.109-16.757 4.889-23.94 10.155l-.1.076c-.252.176-.453.353-.252.73.378.253.63 0 .933-.176 5.342-2.52 10.836-4.662 16.707-5.468 12.197-1.688 22.554 1.562 30.316 11.466 6.502 8.266 8.946 18.018 9.828 28.224.932 10.584.05 21.092-2.42 31.4-9.197 38.303-28.223 69.98-61.94 91.98q-.051-.076 0 .024c1.914.73 3.855 1.386 5.72 2.168 1.134.478 2.016.352 3.1-.252a108.4 108.4 0 0 0 27.593-23.613" vector-effect="non-scaling-stroke"/><path fill="#2ecc40" fill-rule="evenodd" d="M846.523 141.876c18.95-23.058 30.669-49.14 32.508-79.204.756-12.02-.705-23.763-6.88-34.423-5.795-9.98-14.414-15.65-26.207-16.077-7.107-.252-13.71 1.638-20.16 4.36-.05-1.815-.882-.858-1.512-.404a118.4 118.4 0 0 0-25.402 24.268 158.8 158.8 0 0 0-27.09 52.088c-2.066 6.804-3.528 13.709-4.611 20.714-.177 1.21.1 1.563 1.36 1.588 4.99.076 4.99.126 5.696-4.788l.176-1.462a171.4 171.4 0 0 1 26.309-63.604 138.6 138.6 0 0 1 21.57-25.63c.807.606-.553 1.034-.251 1.589q0 .05.076.126h.453l1.008-.303c6.275-1.738 12.6-2.268 18.95-.63 11.089 2.848 17.767 10.458 21.748 20.765 4.713 12.172 4.687 24.747 2.722 37.397a126 126 0 0 1-19.278 49.392c-9.375 14.364-20.765 26.712-36.087 34.978-.201.126-.504.252-.352.604l.352.202c1.386.504 2.823.932 4.133 1.588 1.613.78 2.873.504 4.435-.378a98.3 98.3 0 0 0 26.334-22.756m34.474 7.988a211.7 211.7 0 0 0 42.94-82.076 14.1 14.1 0 0 0-.2-9.173 123.5 123.5 0 0 0-8.367-18.85 169 169 0 0 1-1.84 18.649 184 184 0 0 1-22.982 62.42c-9.652 16.582-21.32 31.525-36.187 43.848a108.4 108.4 0 0 1-13.734 9.526c2.47.932 4.636 1.688 6.753 2.595 1.285.58 2.293.378 3.478-.353a128.5 128.5 0 0 0 30.139-26.586" vector-effect="non-scaling-stroke"/><path fill="#2ecc40" fill-rule="evenodd" d="M834.57 121.188c-.277.504-.604.982-.705 1.512a65.5 65.5 0 0 1-6.25 19.177c.429-.076.706-.05.832-.151q1.764-1.94 3.452-3.982a118.44 118.44 0 0 0 25.377-56.297c1.764-11.012 1.612-22-1.94-32.71-4.864-14.767-16.255-24.821-33.19-23.435-4.233.352-5.745 1.41-7.332 5.796l.15.075 1.06.076c13.406.126 22.528 6.753 27.946 18.723 4.738 10.509 5.09 21.647 3.704 32.86a103.3 103.3 0 0 1-13.104 38.356" vector-effect="non-scaling-stroke"/><path fill="#2ecc40" fill-rule="evenodd" d="M818.913 66.134q.15-.353.176-.605a2.5 2.5 0 0 0-.227-1.008 32.76 32.76 0 0 0-8.921-12.348c-1.31-1.058-3.704-1.436-3.805-3.15-.101-1.562 1.26-3.2 1.84-4.838.352-1.034.755-1.185 1.789-.807q8.618 3.1 13.658 10.735c5.846 8.82 7.258 18.699 6.779 29.006-.05 1.159 0 2.217.403 3.276a70.6 70.6 0 0 1 3.78 16.53c.882-.503.857-1.31 1.058-1.94a85.7 85.7 0 0 0 3.226-14.364c1.336-10.281 1.134-20.487-2.797-30.29-3.83-9.5-10.206-16.38-20.437-18.976-3.654-.932-3.63-.907-5.72 2.193a189 189 0 0 0-16.683 30.366 174 174 0 0 0-12.928 43.394c-.176 1.185 0 1.512 1.16 1.437a33 33 0 0 1 4.435 0c1.486.126 1.89-.555 2.09-1.89 1.412-8.67 3.655-17.136 6.226-25.503 2.116-6.905 5.443-13.381 6.753-20.563.63-3.528 1.79-6.905 2.62-10.382.379-1.538.858-1.865 2.37-1.008a50.4 50.4 0 0 1 13.154 10.735M929.969 85.79c-16.154 37.875-37.246 71.467-71.946 94.853 2.67 1.008 5.24 1.915 7.76 2.948 1.009.428 1.765.252 2.672-.353a136 136 0 0 0 19.404-15.498c17.64-16.884 31.45-36.565 43.067-57.91q.63-1.108.605-2.393a154 154 0 0 0-1.562-21.647m-53.35 101.757c3.1 1.16 5.873 2.092 8.569 3.25 1.36.58 2.319.278 3.453-.503 12.726-8.895 23.612-19.731 33.742-31.374.68-.781 1.008-1.688 1.31-2.62a146 146 0 0 0 5.444-20.715c.15-.806.428-1.688-.1-2.722-14.566 21.042-30.77 40.22-52.417 54.684M808.278 27.502a98.3 98.3 0 0 0-14.641 11.29 128.5 128.5 0 0 0-29.081 43.445q-6.174 14.868-8.316 30.794c-.05.58-.43 1.588.252 1.688q2.318.378 4.586 0c1.059-.201.756-1.512.857-2.343.78-6.15 2.142-12.172 3.88-18.094q8.292-27.972 26.738-50.627 7.207-8.694 15.725-16.128" vector-effect="non-scaling-stroke"/><path fill="#2ecc40" fill-rule="evenodd" d="m788.336 42.1-.403-.453a25.2 25.2 0 0 0-6.476 4.662 109.62 109.62 0 0 0-34.423 64.638c-.605 4.133-.63 4.083 3.024 4.032 1.058-.05 1.512-.327 1.512-1.41q.1-1.815.453-3.554a118.44 118.44 0 0 1 30.39-61.992q2.899-3.024 5.923-5.947" vector-effect="non-scaling-stroke"/></g><path fill="transparent" stroke="transparent" d="M720 0h560v191H720z"/></g></svg>