<?xml version="1.0" standalone="no"?>
<!DOCTYPE svg PUBLIC "-//W3C//DTD SVG 20010904//EN"
 "http://www.w3.org/TR/2001/REC-SVG-20010904/DTD/svg10.dtd">
<svg version="1.0" xmlns="http://www.w3.org/2000/svg"
 width="826.000000pt" height="826.000000pt" viewBox="0 0 826.000000 826.000000"
 preserveAspectRatio="xMidYMid meet">

<g transform="translate(0.000000,826.000000) scale(0.100000,-0.100000)"
fill="#000000" stroke="none">
<path d="M3658 7293 c5 -21 7 -23 10 -9 2 10 0 22 -6 28 -6 6 -7 0 -4 -19z"/>
<path d="M4340 7199 l-35 -30 38 26 c33 24 43 35 34 35 -1 0 -18 -14 -37 -31z"/>
<path d="M3652 7115 c20 -13 46 -40 58 -60 26 -42 36 -46 15 -6 -15 30 -82 91
-100 91 -5 0 7 -11 27 -25z"/>
<path d="M4294 7075 c-12 -37 -17 -68 -12 -71 13 -8 16 -4 23 46 4 24 11 52
16 62 11 20 11 28 2 28 -5 0 -17 -30 -29 -65z"/>
<path d="M4247 7003 c-14 -13 -6 -52 13 -66 11 -8 17 -18 12 -23 -4 -4 1 -2
11 5 21 17 22 40 1 69 -16 23 -26 27 -37 15z"/>
<path d="M4559 6989 l-24 -20 28 17 c15 9 27 18 27 20 0 8 -8 4 -31 -17z"/>
<path d="M3500 6976 c0 -14 4 -27 8 -30 5 -3 6 8 4 25 -5 35 -12 38 -12 5z"/>
<path d="M3155 6971 c3 -5 1 -11 -4 -13 -4 -1 -11 -13 -15 -25 -10 -31 15 -21
30 12 9 19 9 25 -3 29 -8 3 -12 2 -8 -3z"/>
<path d="M3008 6933 c5 -21 7 -23 10 -9 2 10 0 22 -6 28 -6 6 -7 0 -4 -19z"/>
<path d="M4495 6910 c-3 -6 1 -7 9 -4 18 7 21 14 7 14 -6 0 -13 -4 -16 -10z"/>
<path d="M3691 6889 c-23 -9 -24 -10 -5 -24 19 -14 64 -21 64 -9 0 11 -21 44
-28 43 -4 0 -18 -5 -31 -10z"/>
<path d="M4220 6891 c0 -4 25 -11 56 -14 61 -6 94 -24 72 -38 -10 -7 -10 -9 0
-10 21 -3 27 -4 38 -12 13 -8 28 33 16 44 -25 24 -182 50 -182 30z"/>
<path d="M4155 6881 c-6 -11 13 -26 22 -17 4 3 0 6 -8 7 -8 0 -6 4 6 9 16 7
17 9 3 9 -9 1 -19 -3 -23 -8z"/>
<path d="M4198 6853 c7 -3 16 -2 19 1 4 3 -2 6 -13 5 -11 0 -14 -3 -6 -6z"/>
<path d="M3728 6833 c7 -3 16 -2 19 1 4 3 -2 6 -13 5 -11 0 -14 -3 -6 -6z"/>
<path d="M4130 6775 c-5 -14 -10 -30 -10 -35 0 -4 -7 -30 -16 -58 -16 -50 -17
-50 -36 -32 -12 11 -17 24 -13 31 5 7 4 10 -2 6 -13 -8 -23 14 -23 49 0 13 -5
24 -11 24 -8 0 -10 -14 -6 -40 4 -35 2 -42 -28 -65 -19 -14 -38 -25 -44 -25
-6 0 -11 -4 -11 -9 0 -5 -19 -12 -42 -15 -24 -4 -50 -11 -58 -17 -12 -9 -11
-10 5 -4 11 4 44 9 73 12 36 4 52 10 52 20 0 10 6 13 18 8 9 -4 29 -11 43 -15
14 -4 40 -15 58 -24 32 -17 33 -18 14 -39 l-18 -21 26 20 c15 10 25 22 23 25
-2 4 -1 21 2 38 5 25 12 32 40 37 19 3 32 10 29 14 -2 4 -17 5 -31 2 -25 -5
-26 -3 -19 24 22 83 23 94 9 105 -11 9 -16 6 -24 -16z"/>
<path d="M4197 6728 c12 -24 15 -54 11 -144 -4 -88 -2 -114 7 -114 7 0 15 6
18 14 3 8 43 28 89 46 46 17 114 47 151 65 l68 35 -43 -79 c-24 -44 -45 -78
-48 -76 -7 4 -4 -54 3 -61 2 -2 25 5 51 16 25 12 51 18 58 14 6 -4 8 -3 5 3
-10 16 39 35 52 20 7 -9 -3 -28 -35 -66 -37 -44 -42 -56 -32 -68 10 -13 19 -8
56 32 24 25 45 45 47 43 1 -2 6 -20 9 -42 6 -30 5 -38 -6 -33 -8 2 -22 -1 -32
-9 -11 -7 -23 -11 -27 -8 -5 3 -9 0 -9 -6 0 -6 8 -9 18 -6 65 19 71 19 78 -8
3 -14 13 -26 21 -26 8 0 13 6 10 13 -20 48 -20 50 -6 45 8 -3 13 -12 11 -22
-5 -28 8 -18 23 18 8 18 25 47 38 62 l25 29 -53 1 c-56 2 -120 34 -131 66 -3
12 -15 17 -39 16 -19 -1 -32 -5 -29 -9 3 -5 -3 -6 -12 -2 -11 4 -15 2 -11 -4
4 -5 -5 -15 -19 -22 -35 -15 -35 -15 -16 18 9 16 20 27 24 25 13 -8 38 38 29
54 -5 9 -5 29 0 46 5 17 9 34 9 38 0 15 -29 8 -93 -22 -70 -32 -82 -35 -72
-20 3 6 -1 7 -9 4 -9 -3 -13 -11 -9 -17 3 -6 1 -7 -5 -3 -7 4 -12 2 -12 -3 0
-6 -5 -11 -10 -11 -6 0 1 17 15 38 25 37 25 37 4 40 -12 2 -26 -1 -32 -7 -16
-16 -30 -13 -23 4 11 28 -22 15 -43 -17 l-22 -33 2 40 c2 22 6 47 11 57 6 12
4 15 -11 11 -13 -3 -21 1 -25 14 -3 10 -14 23 -25 30 -18 11 -18 11 -4 -19z
m347 -193 c-6 -16 -24 -21 -24 -7 0 11 11 22 21 22 5 0 6 -7 3 -15z"/>
<path d="M4186 6707 c3 -10 9 -15 12 -12 3 3 0 11 -7 18 -10 9 -11 8 -5 -6z"/>
<path d="M4425 6670 c-3 -6 1 -7 9 -4 18 7 21 14 7 14 -6 0 -13 -4 -16 -10z"/>
<path d="M3341 6618 c12 -18 24 -35 26 -37 2 -2 3 5 3 17 0 21 -24 52 -41 52
-6 0 0 -15 12 -32z"/>
<path d="M3445 6629 c-4 -6 -5 -12 -2 -15 2 -3 7 2 10 11 7 17 1 20 -8 4z"/>
<path d="M3730 6616 c-8 -11 -15 -23 -15 -26 -7 -41 -45 -119 -45 -91 0 7 -5
9 -10 6 -6 -4 -8 -10 -5 -15 3 -4 -2 -11 -11 -14 -11 -4 -7 10 15 49 38 67 39
83 5 91 -19 5 -32 0 -54 -21 -16 -15 -29 -31 -28 -34 1 -14 -15 -51 -22 -51
-4 0 -10 9 -13 20 -9 35 -30 24 -24 -12 l6 -33 -15 33 c-8 17 -19 32 -24 32
-7 0 -7 -6 0 -19 5 -11 10 -30 10 -43 -1 -21 -2 -20 -14 7 -17 40 -41 59 -63
50 -10 -5 -28 -7 -40 -6 -13 1 -23 -3 -23 -9 0 -6 4 -9 9 -6 25 16 141 -194
141 -256 0 -32 3 -39 18 -36 13 2 18 15 20 51 4 69 57 149 113 171 23 9 43 16
44 14 17 -20 75 -154 75 -175 l0 -28 15 30 c9 17 24 36 33 44 14 12 15 13 1 8
-11 -4 -22 6 -34 31 -10 21 -19 39 -19 42 -1 3 -13 21 -29 41 -15 20 -27 44
-27 53 0 18 37 78 52 84 13 6 9 16 -10 29 -15 9 -21 7 -32 -11z m-248 -170 c9
-28 15 -52 14 -54 -4 -4 -52 97 -60 128 l-7 25 18 -24 c10 -13 26 -47 35 -75z"/>
<path d="M5234 6579 c10 -40 11 -41 14 -15 2 16 -3 35 -11 43 -13 13 -13 10
-3 -28z"/>
<path d="M5240 6510 c0 -12 -7 -34 -15 -50 -21 -41 -4 -37 47 10 36 33 40 42
28 50 -27 18 -60 12 -60 -10z"/>
<path d="M3767 6508 c-16 -10 67 -9 118 2 35 7 30 8 -33 7 -40 -1 -78 -5 -85
-9z"/>
<path d="M3730 6503 c0 -5 29 -37 65 -73 36 -35 65 -61 65 -57 0 3 -25 31 -55
62 -30 31 -55 61 -55 66 0 5 -4 9 -10 9 -5 0 -10 -3 -10 -7z"/>
<path d="M2018 6434 c-27 -13 -48 -26 -48 -28 0 -18 34 -61 64 -81 l36 -25 21
23 c11 12 27 30 36 39 9 10 17 32 17 49 1 24 -4 33 -22 40 -35 13 -52 11 -104
-17z"/>
<path d="M3190 6410 c8 -5 22 -10 30 -10 13 0 13 1 0 10 -8 5 -22 10 -30 10
-13 0 -13 -1 0 -10z"/>
<path d="M3303 6413 c-8 -3 -13 -25 -13 -59 0 -30 -3 -54 -7 -54 -17 0 -35 18
-29 29 4 6 2 9 -7 5 -8 -3 -27 10 -45 30 -28 32 -31 33 -37 16 -4 -13 7 -35
37 -73 91 -113 103 -131 115 -161 21 -57 16 -68 -17 -36 -17 17 -28 34 -25 39
3 5 1 12 -4 15 -5 4 -13 1 -17 -5 -5 -8 -3 -9 6 -4 9 5 11 4 6 -4 -10 -15 -29
-3 -22 15 3 7 0 16 -6 20 -7 5 -8 2 -3 -6 5 -8 3 -11 -6 -7 -8 3 -38 14 -67
23 -52 18 -53 18 -100 -6 -36 -19 -66 -24 -130 -26 -46 -1 -86 -5 -89 -7 -8
-9 50 -35 72 -32 11 1 48 5 83 9 81 10 153 -7 213 -50 64 -47 77 -63 58 -75
-8 -5 -9 -9 -4 -9 6 0 15 4 20 9 6 5 27 12 48 15 33 6 37 5 37 -14 0 -11 5
-29 12 -39 11 -18 13 -17 36 11 20 23 22 32 12 41 -10 9 -14 9 -17 0 -3 -7
-11 -13 -20 -13 -11 0 -13 7 -8 29 3 17 -3 67 -15 121 -12 50 -19 94 -16 97 3
4 2 11 -4 18 -5 6 -12 37 -16 69 -5 44 -4 60 7 67 11 7 9 9 -6 8 -11 0 -26 -3
-32 -6z m-6 -145 c-3 -8 -6 -5 -6 6 -1 11 2 17 5 13 3 -3 4 -12 1 -19z"/>
<path d="M5726 6238 c-29 -21 -40 -36 -41 -59 -4 -41 -15 -50 -69 -56 -27 -4
-46 -11 -46 -18 0 -10 8 -10 38 1 20 7 46 13 57 13 18 0 18 -1 -3 -11 -32 -16
-22 -33 21 -34 29 -1 37 3 37 16 0 9 -3 20 -7 24 -4 4 -9 18 -10 31 -3 22 -1
24 25 19 19 -4 35 0 50 13 22 18 22 18 4 53 l-18 36 -38 -28z"/>
<path d="M5401 6251 c-8 -5 -9 -11 -3 -15 5 -3 12 1 16 9 6 17 6 18 -13 6z"/>
<path d="M3711 6231 c27 -17 98 -30 93 -17 -2 6 -15 12 -29 12 -14 1 -38 5
-53 8 -20 5 -23 4 -11 -3z"/>
<path d="M2240 6199 c-17 -30 -8 -37 18 -13 19 18 20 23 7 27 -9 4 -19 -2 -25
-14z"/>
<path d="M2777 6184 c2 -7 11 -10 19 -7 19 7 18 10 -5 16 -13 3 -18 1 -14 -9z"/>
<path d="M2218 6132 c-4 -14 2 -31 18 -49 13 -15 24 -32 24 -36 0 -5 5 -5 10
-2 15 9 8 38 -13 54 -10 7 -22 22 -26 34 l-8 21 -5 -22z"/>
<path d="M2785 6058 c-3 -13 -1 -36 4 -53 7 -26 8 -23 7 22 -1 59 -3 64 -11
31z"/>
<path d="M4127 6013 c-56 -16 -64 -30 -43 -71 20 -39 29 -44 76 -46 28 -1 43
4 52 17 7 11 23 23 36 28 24 9 29 40 10 57 -29 23 -82 29 -131 15z"/>
<path d="M2130 5976 c0 -7 7 -21 15 -32 16 -21 20 -38 6 -30 -12 8 -71 -4 -71
-14 0 -5 13 -14 29 -21 16 -7 28 -16 26 -19 -2 -3 12 -4 31 -2 39 5 45 18 12
25 -21 4 -20 4 3 6 24 1 52 31 29 31 -5 0 -25 15 -44 34 -20 18 -36 28 -36 22z"/>
<path d="M4931 5973 c-9 -19 8 -86 27 -105 20 -20 66 2 90 42 l22 39 -22 12
c-13 7 -37 13 -55 15 -17 1 -36 5 -42 8 -5 4 -14 -1 -20 -11z"/>
<path d="M6030 5970 c0 -6 -5 -8 -12 -4 -6 4 -8 3 -4 -4 8 -13 -15 -102 -27
-102 -4 0 -6 -4 -2 -9 5 -9 -8 -120 -24 -193 -5 -21 -4 -38 0 -38 14 0 10 -43
-5 -62 -7 -10 -17 -14 -21 -10 -5 4 -5 2 -2 -4 8 -14 -63 -145 -75 -138 -4 3
-8 1 -8 -3 0 -5 -13 -14 -30 -20 -36 -13 -35 -16 -20 141 5 55 7 102 4 105
-17 17 -32 -62 -36 -197 -1 -41 -6 -76 -11 -79 -4 -2 -4 -10 2 -16 12 -16 24
-119 14 -133 -9 -13 -103 -35 -103 -25 0 4 5 12 12 19 28 28 -3 9 -36 -23 -21
-19 -35 -35 -32 -35 2 0 35 7 71 15 37 9 71 15 75 13 4 -2 -5 -29 -20 -60 -16
-32 -27 -58 -25 -58 10 0 -27 -84 -41 -95 -9 -6 -18 -27 -19 -46 -4 -58 -65
-175 -65 -126 0 8 -12 42 -26 78 -26 63 -26 67 -19 214 4 83 8 156 8 163 0 7
24 24 54 37 65 30 71 42 7 14 -26 -11 -49 -17 -52 -14 -3 3 1 29 10 59 15 53
14 55 -6 60 -34 9 -46 7 -46 -8 0 -8 -4 -18 -10 -21 -5 -3 -7 0 -4 9 3 8 2 21
-2 27 -5 9 -10 5 -16 -12 -6 -16 -11 -20 -17 -11 -15 25 -41 2 -41 -37 0 -20
-9 -56 -20 -80 -11 -24 -20 -55 -21 -70 -1 -22 -5 -17 -26 27 -14 30 -28 71
-30 93 -5 35 -2 42 32 74 48 43 42 55 -6 15 l-36 -29 -1 35 c-1 20 3 32 8 29
6 -3 10 -3 11 2 0 4 2 16 4 26 4 21 1 21 -30 1 -14 -9 -25 -22 -25 -30 0 -8
-6 -11 -14 -8 -8 3 -23 1 -33 -5 -12 -7 -14 -10 -4 -11 11 0 13 -15 7 -82 -3
-46 -8 -94 -11 -108 -13 -71 -34 -236 -41 -315 l-7 -90 -38 80 c-47 97 -49
114 -11 108 19 -3 23 -2 13 5 -10 8 -11 10 -1 14 10 3 8 10 -6 26 -35 42 -68
20 -51 -34 10 -32 8 -37 -23 -69 -19 -19 -41 -35 -49 -36 -9 0 -11 -3 -5 -5
14 -6 -4 -74 -19 -74 -6 0 -24 11 -41 24 -36 27 -145 80 -152 73 -2 -2 9 -11
26 -19 17 -8 31 -19 31 -24 -1 -5 2 -9 7 -9 15 -1 68 -34 95 -60 l27 -26 30
30 c17 16 30 24 30 18 0 -7 7 -21 16 -32 14 -19 15 -19 20 3 4 12 9 22 12 22
3 0 24 -17 46 -37 23 -21 31 -27 20 -13 -49 60 -91 154 -73 165 8 5 14 -24 10
-47 0 -5 5 -8 12 -8 6 0 25 -20 40 -46 15 -25 31 -43 36 -40 5 3 11 -15 14
-41 3 -30 12 -52 25 -62 11 -9 22 -23 25 -31 3 -8 6 6 6 32 l1 47 36 -24 c20
-14 40 -25 44 -25 20 0 -7 45 -46 78 -31 25 -44 44 -44 62 l0 25 26 -30 25
-30 -26 42 c-27 47 -34 126 -14 166 16 30 70 87 84 87 6 0 12 -19 14 -42 2
-48 15 -136 35 -245 7 -40 9 -70 5 -67 -4 2 -11 -1 -15 -7 -4 -8 -3 -9 5 -5 6
4 14 0 17 -8 7 -19 34 -21 34 -3 0 8 2 9 8 1 4 -6 21 -9 38 -7 26 4 30 8 26
29 -2 13 -1 36 3 51 l7 28 13 -35 c8 -19 14 -47 14 -62 1 -22 6 -28 24 -28 28
0 47 -18 47 -44 0 -15 6 -9 21 19 29 55 35 60 198 170 l143 97 52 -7 c28 -4
54 -11 57 -16 3 -5 15 4 27 21 l23 30 -63 0 -63 0 53 30 c28 17 52 32 52 35 0
11 -138 -67 -254 -143 -72 -47 -138 -87 -148 -89 -14 -4 -12 7 17 77 19 45 41
104 50 131 15 44 23 53 68 75 29 15 66 37 84 50 18 13 38 23 45 22 6 -2 12 2
13 8 0 6 14 23 31 37 l32 27 46 -26 c26 -15 49 -24 52 -21 3 2 -11 18 -31 36
-20 17 -29 31 -21 31 8 0 30 16 50 36 19 19 40 33 45 30 5 -3 14 1 21 9 10 13
16 12 44 -2 l31 -16 -19 21 c-18 21 -18 22 5 30 13 5 40 13 59 17 19 5 29 10
21 13 -16 5 -38 23 -98 76 -29 26 -47 36 -51 28 -10 -14 -26 -2 -30 22 -3 14
1 17 12 13 14 -6 14 -4 2 16 -8 12 -18 42 -22 67 -4 25 -11 50 -16 56 -12 16
1 44 21 44 26 0 21 32 -8 55 -14 11 -28 19 -31 18 -3 -1 -6 38 -7 85 -1 48 -2
90 -3 95 0 4 -4 7 -10 7 -5 0 -10 -24 -10 -52 0 -71 -13 -91 -33 -52 -8 17
-18 46 -22 67 -7 35 -25 62 -25 37z m23 -128 c-4 -9 -2 -13 4 -9 6 4 16 1 21
-6 8 -10 4 -27 -14 -66 -21 -47 -26 -52 -41 -40 -14 12 -15 11 -8 -10 5 -17 4
-22 -5 -16 -15 9 -9 108 11 193 l13 54 12 -42 c7 -23 10 -49 7 -58z m80 -235
l-31 -23 31 -14 c17 -7 27 -15 21 -17 -5 -2 -8 -22 -6 -44 5 -52 -19 -108 -77
-177 -66 -79 -221 -195 -237 -179 -3 3 16 51 41 108 114 255 144 302 218 341
65 33 80 35 40 5z m146 -203 c-6 -8 -37 -28 -68 -45 -31 -18 -65 -39 -76 -48
-11 -8 -4 1 15 21 21 22 40 33 50 30 13 -5 13 -3 2 10 -11 14 -10 18 10 29 22
12 22 11 8 -6 -14 -17 -14 -17 7 -4 15 9 18 16 11 20 -9 6 -8 12 2 23 12 15
14 15 31 0 14 -13 16 -20 8 -30z m-432 -41 c-30 -68 -46 -97 -47 -82 0 9 -3
31 -6 48 -6 28 -3 32 27 46 19 8 35 14 36 15 2 0 -3 -12 -10 -27z m-388 -149
c-24 -35 -45 -62 -46 -60 -7 7 27 87 54 127 25 39 28 41 31 20 2 -15 -12 -46
-39 -87z m-169 -138 l-32 -31 6 30 c3 17 8 56 12 88 l7 59 19 -58 19 -57 -31
-31z m46 87 c7 -18 9 -33 4 -33 -9 0 -30 56 -29 79 0 14 1 14 6 1 3 -8 12 -30
19 -47z m139 -140 c-1 -102 -7 -191 -15 -227 l-14 -59 -18 119 c-10 65 -21
149 -25 185 -5 66 -5 66 32 108 20 22 38 41 39 41 1 0 1 -75 1 -167z"/>
<path d="M6021 5834 c0 -11 3 -14 6 -6 3 7 2 16 -1 19 -3 4 -6 -2 -5 -13z"/>
<path d="M6045 5561 c-3 -5 -2 -12 3 -15 5 -3 9 1 9 9 0 17 -3 19 -12 6z"/>
<path d="M1755 5920 c15 -30 33 -67 40 -82 16 -33 6 -42 -30 -28 -35 13 -45
13 -45 -3 0 -7 22 -19 51 -26 65 -17 51 -33 -19 -22 -49 8 -74 0 -57 -17 4 -4
57 -9 118 -12 115 -5 138 -12 172 -51 20 -22 20 -22 0 -15 -11 4 -33 10 -50
12 l-30 5 24 -20 c13 -12 41 -24 63 -27 48 -8 32 -23 -27 -25 l-40 -2 45 -7
c25 -4 54 -11 64 -15 13 -6 17 -5 12 3 -3 6 3 14 16 18 13 4 24 2 26 -5 2 -6
10 -11 17 -11 8 0 18 -7 23 -16 11 -19 36 -9 28 11 -4 11 3 10 31 -1 32 -14
37 -14 54 2 23 21 18 30 -21 37 -38 8 -185 79 -228 110 -17 13 -28 28 -24 32
4 5 3 6 -3 3 -5 -3 -26 7 -45 23 -19 16 -29 29 -22 29 7 0 10 5 7 10 -4 6 -10
8 -15 5 -5 -3 -11 8 -15 25 -4 16 -11 33 -17 36 -7 5 -9 -2 -4 -20 3 -14 4
-26 2 -26 -3 0 -32 28 -66 63 l-62 62 27 -55z m119 -149 c-2 -3 -12 3 -22 13
-16 17 -16 18 5 5 12 -7 20 -15 17 -18z m161 -119 c-3 -3 -11 0 -18 7 -9 10
-8 11 6 5 10 -3 15 -9 12 -12z"/>
<path d="M1770 5956 c0 -2 12 -12 28 -21 l27 -18 -19 21 c-17 20 -36 29 -36
18z"/>
<path d="M2821 5924 c0 -11 3 -14 6 -6 3 7 2 16 -1 19 -3 4 -6 -2 -5 -13z"/>
<path d="M4255 5920 c-3 -5 -1 -10 4 -10 6 0 11 5 11 10 0 6 -2 10 -4 10 -3 0
-8 -4 -11 -10z"/>
<path d="M4197 5869 c-44 -50 -54 -87 -22 -81 16 3 22 11 22 33 0 16 10 43 22
59 31 43 18 37 -22 -11z"/>
<path d="M3975 5894 c-5 -1 -22 -5 -37 -8 -16 -4 -28 -10 -28 -15 0 -13 47
-20 59 -8 10 10 41 -50 41 -79 0 -9 11 -14 31 -14 l31 0 -30 38 c-16 20 -35
49 -43 63 -8 14 -18 25 -24 23z"/>
<path d="M1975 5881 c-3 -6 6 -21 21 -34 15 -12 39 -33 53 -47 56 -55 89 -72
119 -62 18 7 21 11 9 11 -11 1 -15 6 -11 13 4 6 3 8 -3 5 -5 -4 -25 5 -43 18
l-34 25 27 0 c45 0 30 14 -36 33 -34 10 -69 25 -79 33 -11 11 -18 12 -23 5z"/>
<path d="M2873 5813 c-13 -2 -23 -12 -23 -21 0 -9 -6 -29 -14 -44 -13 -24 -12
-27 7 -32 32 -8 67 30 67 71 0 18 -3 32 -7 32 -5 -1 -18 -4 -30 -6z"/>
<path d="M6580 5802 c0 -7 -7 -9 -17 -5 -15 5 -16 3 -5 -8 9 -10 15 -10 24 -1
6 6 9 15 5 19 -4 3 -7 1 -7 -5z"/>
<path d="M2170 5791 c0 -10 19 -25 25 -20 1 2 -3 10 -11 17 -8 7 -14 8 -14 3z"/>
<path d="M5806 5782 c-3 -5 -5 -35 -4 -68 0 -32 3 -53 5 -46 3 6 9 10 13 7 5
-3 11 -1 15 5 3 5 2 10 -4 10 -5 0 -9 21 -9 46 0 47 -6 62 -16 46z"/>
<path d="M4124 5767 c-3 -8 1 -27 7 -43 7 -16 12 -38 11 -49 0 -14 1 -15 4 -4
4 14 13 12 60 -13 30 -17 57 -28 60 -26 2 3 -21 22 -52 43 -60 41 -90 77 -79
95 3 5 4 10 0 10 -3 0 -8 -6 -11 -13z"/>
<path d="M5601 5714 c-33 -25 -63 -50 -67 -55 -3 -6 26 13 65 42 65 47 78 59
67 59 -2 0 -31 -21 -65 -46z"/>
<path d="M2788 5713 c7 -3 16 -2 19 1 4 3 -2 6 -13 5 -11 0 -14 -3 -6 -6z"/>
<path d="M4760 5705 c0 -8 8 -11 20 -8 11 3 20 7 20 8 0 1 -9 5 -20 8 -12 3
-20 0 -20 -8z"/>
<path d="M3006 5667 c11 -14 21 -23 23 -21 2 2 10 -1 17 -7 8 -7 14 -7 18 0 4
6 -12 20 -35 31 l-41 21 18 -24z"/>
<path d="M4470 5681 c0 -9 23 -21 41 -21 4 0 6 7 3 15 -7 16 -44 21 -44 6z"/>
<path d="M6247 5668 c-9 -36 5 -71 30 -73 16 -1 19 3 15 19 -3 12 -10 28 -17
36 -7 8 -14 22 -17 30 -3 10 -7 5 -11 -12z"/>
<path d="M6330 5650 c0 -21 29 -61 30 -41 0 8 7 22 15 32 15 15 13 17 -15 21
-23 3 -30 1 -30 -12z"/>
<path d="M5254 5624 c-21 -23 -43 -35 -72 -40 -23 -4 -42 -9 -42 -13 1 -13 39
-76 40 -65 0 21 143 61 179 51 15 -4 20 2 23 24 3 20 0 29 -14 32 -10 3 -21 1
-24 -4 -3 -5 -10 -9 -16 -9 -7 0 -7 4 0 13 8 9 4 16 -16 28 -26 15 -28 14 -58
-17z m-20 -63 c9 -15 -53 -36 -67 -22 -8 8 -6 11 10 11 12 0 25 5 28 10 8 12
22 13 29 1z"/>
<path d="M4540 5640 c0 -5 5 -10 11 -10 5 0 7 5 4 10 -3 6 -8 10 -11 10 -2 0
-4 -4 -4 -10z"/>
<path d="M2800 5546 c0 -2 7 -7 16 -10 8 -3 12 -2 9 4 -6 10 -25 14 -25 6z"/>
<path d="M2770 5530 c-9 -6 -10 -10 -3 -10 6 0 15 5 18 10 8 12 4 12 -15 0z"/>
<path d="M6414 5531 c4 -6 14 -11 22 -11 8 0 26 -7 40 -16 22 -15 24 -15 18
-1 -3 9 -16 19 -27 22 -12 4 -30 9 -41 12 -12 3 -16 1 -12 -6z"/>
<path d="M2603 5503 c9 -2 23 -2 30 0 6 3 -1 5 -18 5 -16 0 -22 -2 -12 -5z"/>
<path d="M4978 5478 l-24 -33 23 -24 c12 -13 25 -43 29 -67 7 -50 21 -58 27
-16 l4 27 2 -27 c3 -58 37 -20 48 54 12 76 10 102 -9 106 -12 2 -16 -1 -12
-11 6 -16 -11 -30 -38 -32 -11 -1 -18 5 -18 17 0 10 5 18 10 18 6 0 10 5 10
10 0 21 -29 9 -52 -22z"/>
<path d="M2903 5493 c-7 -2 -17 -21 -23 -42 -6 -24 -16 -37 -27 -38 -10 0 -45
-6 -78 -12 -39 -7 -63 -7 -69 -1 -17 17 -24 11 -28 -20 -4 -27 -2 -30 16 -24
12 4 24 12 28 18 5 6 8 7 8 1 0 -5 4 -4 9 4 8 13 15 13 50 1 23 -7 41 -17 41
-22 0 -14 48 -9 64 7 8 9 17 11 21 6 7 -12 35 -3 35 11 0 5 -4 7 -9 4 -11 -7
-2 34 12 52 8 10 14 8 29 -8 17 -18 18 -24 7 -38 -11 -14 -11 -15 0 -5 11 9
21 2 52 -37 82 -103 119 -99 47 6 -33 47 -58 71 -94 89 -48 24 -48 24 -69 5
-28 -26 -33 -25 -27 6 3 19 7 22 13 12 6 -9 9 -7 9 10 0 12 -1 22 -2 21 -2 0
-9 -3 -15 -6z"/>
<path d="M3161 5486 c-16 -20 -4 -86 16 -86 10 0 13 6 9 16 -23 59 -12 94 11
37 11 -28 12 -28 10 -3 -4 47 -24 62 -46 36z"/>
<path d="M3460 5471 c0 -10 12 -24 28 -32 15 -7 30 -15 33 -17 11 -5 18 38 8
44 -5 3 -23 9 -39 14 -25 7 -30 6 -30 -9z"/>
<path d="M3091 5441 c-19 -12 -4 -51 20 -51 22 0 23 6 6 37 -8 15 -17 19 -26
14z"/>
<path d="M6681 5400 c15 -45 24 -54 15 -15 -4 17 -12 34 -17 40 -5 5 -4 -6 2
-25z"/>
<path d="M4480 5376 c-21 -66 -14 -124 12 -98 10 10 10 17 0 32 -10 17 -9 26
4 51 10 20 12 35 6 41 -6 6 -14 -3 -22 -26z"/>
<path d="M3530 5393 c0 -5 5 -14 11 -20 8 -8 6 -18 -6 -36 -16 -24 -15 -27 4
-46 25 -25 25 -27 5 -35 -10 -4 -13 -2 -9 7 4 6 -1 3 -9 -7 -9 -11 -16 -23
-16 -27 0 -12 84 9 95 25 7 9 15 14 19 11 3 -3 2 1 -4 7 -5 7 -10 26 -10 43 0
23 -8 37 -27 51 -42 31 -53 36 -53 27z"/>
<path d="M3808 5333 c-2 -10 2 -37 9 -60 10 -37 9 -50 -8 -99 -23 -68 -22 -64
-4 -64 8 0 23 19 33 42 l18 42 23 -44 c12 -25 27 -53 34 -62 9 -14 9 -22 0
-37 -10 -17 -9 -18 9 -13 47 12 66 -84 28 -146 -19 -30 -19 -34 -4 -56 17 -26
44 -42 44 -25 0 5 -7 23 -14 38 -15 28 -12 71 5 71 5 0 9 -4 9 -10 0 -10 28
-46 71 -91 37 -39 47 -92 53 -282 l5 -167 -28 -33 c-94 -106 -92 -105 -162
-112 -58 -6 -68 -10 -78 -32 -7 -14 -14 -23 -17 -20 -3 3 -1 16 6 29 11 22 10
22 -4 4 -9 -11 -16 -23 -16 -28 0 -4 -9 -8 -20 -8 -21 0 -120 90 -120 109 0 6
-6 11 -12 11 -7 0 -24 9 -38 20 -28 22 -41 25 -37 9 1 -6 -8 -15 -21 -20 -47
-18 -17 16 42 47 46 25 54 33 43 42 -10 9 -17 9 -28 -1 -12 -10 -12 -10 -1 3
18 21 16 26 -23 50 -19 12 -35 28 -35 37 0 11 -7 13 -30 8 -23 -5 -30 -3 -30
9 0 22 -3 21 -59 -18 -27 -19 -52 -32 -57 -28 -4 4 -4 2 -1 -4 4 -7 -1 -18
-10 -25 -15 -12 -16 -12 -10 3 5 15 2 16 -40 3 -49 -15 -65 -25 -40 -25 19 0
20 -5 7 -35 -7 -18 -9 -17 -20 13 -7 17 -19 32 -27 32 -9 0 -13 -6 -10 -14 9
-23 20 -106 13 -106 -17 0 -76 36 -76 46 0 7 12 22 26 33 30 23 26 35 -16 49
-34 12 -37 6 -13 -27 9 -14 12 -21 6 -18 -6 4 -13 -2 -16 -13 -5 -20 -6 -20
-41 -3 -34 16 -35 19 -31 57 5 38 4 39 -6 14 -14 -37 -39 -36 -95 2 -24 17
-44 26 -44 20 0 -6 -14 -19 -31 -29 l-32 -20 37 -6 c31 -6 38 -12 43 -37 3
-16 12 -32 19 -35 8 -3 11 -9 8 -14 -3 -5 -10 -7 -15 -4 -5 4 -6 -2 -2 -12 5
-15 4 -16 -8 -7 -8 6 -27 14 -44 17 -22 5 -25 4 -10 -2 11 -5 28 -12 38 -15
18 -6 24 -26 7 -26 -6 0 -28 11 -50 25 -26 17 -40 21 -41 13 0 -7 -2 -22 -4
-32 -2 -10 3 -26 11 -34 10 -9 13 -24 9 -41 -4 -20 -3 -22 5 -11 7 10 10 11
11 3 1 -7 2 -17 3 -23 0 -5 4 -9 8 -7 4 1 22 -12 40 -29 18 -17 56 -47 85 -68
47 -33 52 -41 58 -84 4 -26 9 -60 12 -76 5 -26 3 -28 -16 -23 -14 3 -21 0 -21
-9 0 -13 12 -18 33 -15 4 0 7 -2 8 -7 0 -4 2 -15 4 -25 2 -13 -12 -5 -48 26
-139 117 -213 171 -279 204 -40 20 -74 37 -76 38 -1 1 7 26 18 55 12 29 19 59
16 67 -9 23 -35 14 -58 -22 -13 -19 -25 -35 -29 -35 -3 0 -33 18 -67 40 -64
42 -88 71 -78 97 4 10 2 13 -8 10 -27 -11 -36 21 -43 155 l-6 136 -41 8 c-35
8 -44 15 -61 51 -12 25 -31 47 -47 53 -15 7 -35 21 -45 32 -18 20 -18 20 -29
-17 l-10 -38 -21 49 c-21 51 -41 222 -20 176 12 -26 53 -40 69 -24 8 8 7 13
-5 18 -24 9 -21 23 3 17 11 -3 20 -12 20 -20 0 -31 16 -2 18 33 3 37 3 38 -17
20 -16 -15 -29 -17 -71 -11 l-52 7 6 -43 6 -44 -21 48 c-29 65 -53 64 -44 -2
6 -46 5 -50 -17 -56 -13 -4 -31 -14 -40 -22 -16 -14 -16 -18 -3 -44 21 -39 20
-39 -25 -22 -22 9 -37 20 -34 24 3 5 -3 9 -13 9 -11 0 -24 5 -30 11 -7 7 -14
1 -22 -22 -13 -38 -14 -49 -2 -30 7 10 15 2 35 -31 23 -39 38 -83 18 -52 -5 8
-17 3 -39 -15 l-32 -27 24 -26 c13 -14 21 -29 17 -32 -3 -4 1 -4 10 -1 9 4 19
2 23 -4 3 -6 17 -11 31 -11 25 0 34 26 14 46 -7 7 -6 11 4 11 8 0 13 -4 10 -9
-8 -13 13 -9 24 5 8 9 -2 26 -38 67 -55 61 -61 75 -27 64 49 -15 87 -33 87
-43 0 -17 51 -71 83 -88 29 -15 28 -12 -16 37 -26 29 -50 64 -53 79 -4 14 -13
37 -22 51 -13 21 -9 20 29 -11 52 -42 87 -101 97 -161 4 -24 13 -43 19 -43 21
0 34 -21 48 -80 12 -53 12 -58 -5 -62 -10 -3 -16 -11 -14 -18 9 -22 44 -25
100 -8 l53 17 -40 56 c-43 62 -44 67 -27 139 10 46 12 49 22 28 6 -12 25 -29
41 -37 29 -14 30 -17 23 -60 -12 -82 -9 -147 9 -178 25 -43 9 -79 -52 -121
-31 -21 -41 -31 -25 -26 14 4 31 13 39 20 12 12 17 10 33 -11 11 -13 35 -31
53 -38 25 -11 40 -28 56 -63 24 -50 25 -73 6 -85 -16 -11 -121 -10 -132 1 -6
4 -31 14 -58 21 -26 7 -50 17 -53 21 -8 13 -24 11 -24 -3 0 -6 7 -20 17 -30
15 -17 14 -18 -21 -18 -20 0 -35 4 -32 8 3 5 -8 6 -25 4 -24 -3 -27 -7 -18
-18 9 -11 8 -14 -6 -14 -10 0 -43 -7 -74 -16 -105 -31 -110 -34 -44 -30 54 3
61 2 56 -13 -12 -34 -23 -40 -56 -30 -18 5 -33 9 -34 9 -1 0 -1 -9 0 -20 1
-22 13 -27 20 -7 2 6 8 9 12 5 4 -4 3 -13 -2 -20 -5 -7 -13 -22 -17 -32 -5
-16 -4 -17 8 -7 9 7 18 21 21 32 4 11 10 17 15 14 4 -3 10 1 13 8 6 15 147 38
210 35 21 -1 42 3 45 9 4 7 13 9 19 5 7 -5 -16 -18 -55 -31 -77 -28 -112 -48
-112 -65 0 -8 -16 -12 -42 -12 l-43 1 0 -40 c0 -33 4 -41 21 -43 26 -4 74 34
74 58 0 10 11 25 25 34 30 20 41 21 25 2 -8 -11 -9 -20 -1 -33 10 -17 10 -17
11 0 0 23 61 79 78 72 7 -3 11 -1 8 4 -7 11 65 41 98 41 40 0 90 21 112 47
l21 25 81 -148 c44 -82 77 -152 73 -157 -4 -4 -79 -9 -167 -12 -244 -7 -418
19 -635 94 -118 41 -289 88 -389 107 -103 19 -112 24 -148 77 -24 35 -29 52
-29 104 0 57 -13 93 -33 93 -4 0 -3 -23 3 -50 5 -28 7 -53 4 -57 -9 -8 -111
92 -148 145 -17 24 -33 42 -35 39 -9 -9 23 -67 56 -104 44 -47 100 -119 100
-127 0 -3 -8 -3 -18 0 -11 4 -8 -2 8 -14 14 -11 28 -19 32 -19 3 1 16 -10 27
-25 12 -14 41 -34 66 -44 63 -24 57 -38 -13 -32 -38 4 -81 18 -128 41 -70 36
-128 80 -117 91 4 3 0 6 -8 6 -11 0 -11 2 -1 8 9 6 2 16 -25 35 -37 27 -58 22
-45 -11 3 -9 1 -13 -5 -9 -6 4 -17 0 -24 -9 -11 -14 -11 -18 3 -28 12 -9 13
-14 3 -23 -7 -7 -16 -9 -21 -5 -4 4 -4 1 0 -6 6 -9 11 -10 20 -3 9 8 13 6 13
-5 0 -18 -75 -76 -159 -123 -32 -18 -58 -35 -58 -37 0 -3 5 -2 12 2 6 4 8 3 4
-4 -14 -23 -78 -35 -145 -27 -36 4 -76 8 -88 9 -26 1 -28 6 -10 26 6 8 -3 2
-20 -14 -38 -34 -42 -49 -12 -38 11 5 51 5 89 1 38 -4 84 -6 102 -4 36 5 47
-6 49 -50 1 -26 3 -24 16 18 12 40 23 54 61 78 55 35 62 36 57 7 l-4 -23 19
24 c26 31 26 17 0 -20 -12 -16 -27 -26 -34 -23 -8 3 -17 1 -21 -5 -3 -7 0 -8
9 -5 25 10 18 -15 -11 -42 l-28 -26 33 22 c31 21 52 49 94 125 13 22 23 29 40
27 13 -2 86 -5 163 -7 181 -4 173 -3 156 -14 -8 -5 -10 -14 -6 -21 5 -9 4 -11
-3 -6 -7 4 -12 4 -12 -1 0 -4 -27 -17 -60 -27 -33 -11 -60 -23 -60 -27 0 -8
40 -6 55 3 8 5 169 41 230 52 6 1 25 8 42 15 35 14 103 8 103 -11 0 -5 7 -7
15 -4 14 5 97 -24 265 -93 25 -10 59 -24 75 -31 l30 -12 -65 -32 c-59 -28 -67
-36 -92 -88 -15 -31 -28 -69 -30 -85 -2 -15 -11 -35 -22 -43 -17 -15 -17 -16
10 -28 25 -11 27 -11 11 2 -16 13 -16 14 7 18 14 3 30 0 36 -6 8 -8 9 -6 5 6
-5 13 0 21 16 27 13 5 18 10 10 10 -8 1 -12 4 -9 7 10 10 49 -16 42 -28 -4 -7
-2 -8 5 -4 9 6 9 11 1 21 -8 9 -6 14 7 20 17 6 17 7 0 16 -9 6 -15 14 -12 20
10 15 22 10 28 -11 5 -21 5 -21 44 1 40 22 55 38 47 50 -7 12 34 21 59 14 l22
-7 -23 17 c-25 18 -63 15 -120 -11 -18 -9 -38 -14 -43 -12 -17 6 70 48 112 54
29 5 39 11 39 25 0 24 16 24 105 0 53 -15 63 -20 40 -21 -29 -2 -29 -2 -5 -9
31 -9 68 -2 49 9 -7 5 -3 7 12 7 21 -2 24 -6 22 -37 -3 -35 -3 -35 8 -7 6 15
18 27 27 27 34 0 267 -82 282 -99 3 -3 12 -7 20 -9 45 -10 220 -98 248 -125
77 -73 177 -204 304 -397 74 -113 193 -284 263 -380 237 -323 305 -422 340
-494 63 -129 77 -229 55 -402 -5 -43 -14 -161 -19 -262 -12 -215 -34 -312 -91
-400 -84 -131 -182 -168 -590 -222 -162 -22 -204 -31 -133 -28 23 1 45 -1 49
-5 11 -11 26 -8 19 3 -9 14 8 12 24 -2 11 -11 14 -10 18 0 4 10 9 8 19 -5 8
-11 13 -13 14 -5 0 10 4 10 21 0 18 -11 23 -11 26 0 4 10 8 10 19 1 11 -9 14
-8 14 7 1 18 1 18 15 0 8 -11 15 -14 15 -8 0 8 9 10 25 6 17 -4 25 -2 25 6 0
10 3 10 14 1 9 -8 16 -8 20 -2 4 6 14 7 22 4 9 -3 20 0 25 8 8 12 11 12 19 -1
8 -13 10 -12 11 5 0 11 3 14 6 7 2 -6 9 -9 15 -6 6 4 14 0 19 -7 6 -10 9 -7 9
11 1 23 2 24 14 8 17 -23 30 -23 22 -2 -5 14 -4 15 8 5 11 -9 15 -9 19 1 4 8
6 7 6 -4 1 -26 21 -22 22 5 l0 22 9 -22 c12 -30 24 -30 17 -1 -6 21 -5 22 7 5
13 -17 14 -17 21 0 7 17 8 17 15 -2 8 -19 8 -19 17 4 9 22 10 23 17 5 6 -15 9
-16 16 -4 8 13 11 12 23 -4 14 -19 15 -19 32 -3 16 17 18 17 31 0 13 -17 13
-17 14 2 1 18 1 19 11 2 7 -12 15 -15 27 -8 19 10 51 9 69 -2 6 -4 13 -1 16 5
3 10 7 10 20 -1 13 -10 17 -10 17 -1 0 10 3 10 15 0 8 -6 19 -9 24 -6 5 4 12
2 16 -4 3 -5 11 -10 16 -10 6 0 7 4 4 10 -4 6 6 8 24 6 29 -3 36 4 31 29 -1 5
8 1 20 -10 18 -16 23 -17 30 -5 8 13 10 13 10 0 0 -13 1 -13 10 0 9 13 10 13
10 0 0 -13 1 -13 10 0 9 13 10 13 10 0 0 -13 1 -13 10 0 8 12 10 12 15 -2 8
-19 44 -13 62 11 11 15 12 14 13 0 0 -12 13 -19 48 -24 26 -3 57 -9 70 -12 17
-4 21 -2 16 11 -3 9 -1 16 5 16 7 0 14 -7 17 -15 4 -10 20 -15 46 -15 28 0 37
3 32 13 -6 9 -4 9 7 -1 17 -16 76 -16 83 1 5 9 7 9 12 0 3 -7 12 -13 20 -13
11 0 12 4 4 19 -6 12 -18 18 -30 16 -11 -2 -19 1 -17 7 2 12 -106 58 -135 58
-30 0 -117 48 -162 90 -52 49 -91 117 -112 201 -25 100 -30 443 -10 654 41
430 115 802 179 896 22 33 34 42 144 109 36 21 130 107 245 222 102 104 193
188 201 188 20 0 37 -23 43 -57 3 -15 17 -53 31 -83 14 -30 27 -65 29 -78 5
-38 59 -122 98 -152 18 -14 19 -13 13 3 -4 10 -2 17 6 17 9 0 9 2 0 8 -6 4
-14 24 -18 45 -4 20 -11 40 -16 43 -13 8 -11 22 4 27 6 2 4 3 -5 2 -10 -2 -18
1 -18 7 0 5 -9 21 -20 35 -23 30 -26 47 -6 40 8 -3 17 1 20 9 5 13 -37 59
-118 126 -16 14 -26 30 -22 36 10 16 147 100 176 107 20 5 46 -7 120 -55 215
-139 358 -185 608 -197 l123 -6 -18 31 c-17 30 -20 31 -113 37 -164 12 -312
52 -410 113 -53 33 -159 116 -155 122 2 4 29 15 59 25 53 18 57 18 91 2 48
-23 69 -21 25 2 l-35 19 38 7 c21 4 41 5 44 1 4 -3 -3 -6 -15 -6 -26 0 -30
-19 -4 -22 9 0 24 -2 32 -3 8 -1 21 3 28 8 8 6 12 5 12 -2 0 -7 5 -9 10 -6 10
6 15 -13 12 -47 -1 -9 7 -20 18 -23 11 -4 20 -10 20 -15 0 -4 30 -6 68 -4 37
2 59 1 50 -2 -20 -6 -25 -25 -5 -22 6 2 11 -3 9 -10 -1 -8 2 -11 7 -7 6 3 26
-1 45 -9 23 -9 36 -11 38 -4 2 6 13 11 23 12 37 4 80 19 102 36 22 17 22 17
-15 15 -20 -1 -55 6 -77 16 -27 13 -33 19 -19 19 11 0 29 -6 39 -14 22 -16 96
-11 107 7 13 21 9 27 -21 27 -24 0 -28 3 -24 20 6 23 -12 25 -82 11 -37 -7
-41 -6 -41 12 0 13 10 24 28 31 15 6 28 18 28 27 0 13 -15 16 -104 15 -57 -1
-107 2 -110 5 -11 10 5 39 18 32 6 -3 6 -1 -1 8 -7 7 -13 25 -13 40 0 26 -2
27 -50 26 -27 -1 -45 -3 -40 -5 6 -2 10 -8 10 -14 0 -13 -231 -122 -300 -142
-63 -17 -230 -25 -230 -11 -1 6 11 39 26 75 83 205 108 259 115 254 5 -3 6 1
4 9 -3 7 1 27 10 43 8 16 15 35 15 42 0 6 7 12 16 12 8 0 12 5 9 10 -4 6 6 10
23 10 26 0 29 -3 25 -24 -5 -22 -2 -24 18 -18 19 5 20 7 7 10 -36 7 -17 22 27
22 45 0 46 0 44 -32 -2 -34 35 -127 44 -111 11 20 17 102 7 108 -6 3 -7 11 -4
17 5 7 1 9 -9 5 -9 -3 -16 -3 -16 1 3 18 -3 46 -7 35 -4 -8 -28 -10 -82 -6
-42 3 -78 7 -80 8 -10 8 13 35 27 31 42 -14 91 -17 91 -6 0 6 6 8 13 5 6 -4 3
1 -8 10 -11 9 -33 19 -48 22 -28 6 -60 40 -51 55 8 13 -4 10 -31 -8 -28 -19
-145 -44 -145 -32 0 5 -12 14 -27 21 -15 6 -41 25 -58 40 -26 24 -36 28 -73
24 -39 -4 -44 -2 -53 20 -11 29 -12 42 -1 27 4 -7 15 1 29 22 l22 34 -32 0
c-18 0 -42 8 -53 18 -25 20 -54 73 -54 99 0 14 -2 15 -9 4 -5 -8 -8 -19 -7
-25 2 -6 1 -8 -1 -3 -7 12 -32 8 -73 -12 -22 -11 -42 -15 -46 -10 -3 5 -18 9
-34 9 -20 0 -33 7 -41 21 -9 17 -13 19 -20 8 -5 -8 -9 -23 -9 -34 0 -12 -17
-57 -39 -100 -21 -44 -49 -108 -62 -142 -13 -35 -27 -63 -31 -63 -10 0 -10 -3
2 99 5 46 6 89 2 95 -11 17 -20 -41 -21 -140 l-1 -90 -91 -52 c-50 -29 -92
-52 -95 -52 -2 0 -4 24 -4 53 1 43 10 70 54 155 55 107 56 118 4 110 -15 -2
-31 -18 -47 -46 -13 -24 -27 -40 -31 -35 -4 4 -15 38 -23 75 -14 62 -14 68 4
98 11 17 19 38 19 48 -1 13 -6 11 -25 -11 l-24 -27 -7 36 c-7 40 1 61 48 114
l30 35 -5 -43 c-7 -56 8 -45 23 17 18 77 4 79 -53 6 l-52 -65 -14 75 -15 76
36 37 c29 30 39 53 58 130 12 51 24 91 27 88 2 -2 0 -20 -5 -39 -12 -42 -4
-57 12 -24 7 12 28 30 49 40 20 9 37 22 37 27 0 14 -12 12 -38 -6 -27 -19 -27
-11 1 45 21 43 38 54 45 32 2 -6 -4 -11 -14 -11 -13 0 -15 -3 -7 -11 9 -9 20
-7 43 8 l32 20 -27 7 c-21 5 -24 10 -15 21 18 22 -25 7 -46 -16 -21 -23 -37
-24 -54 -4 -10 11 -16 12 -26 4 -22 -18 -45 13 -38 53 l5 33 -25 -30 c-14 -16
-26 -37 -27 -45 -1 -17 -18 56 -18 83 -1 14 4 17 22 12 17 -4 16 -2 -6 10 -16
9 -34 29 -40 44 -7 15 -28 42 -48 59 l-36 31 2 -114 c1 -63 -1 -115 -4 -115
-4 0 -21 15 -38 33 -31 31 -31 33 -21 90 5 31 14 57 20 57 5 0 8 15 7 33 -2
18 0 38 4 45 6 8 3 10 -9 5 -15 -6 -16 -1 -11 48 3 30 9 71 13 92 5 30 4 37
-10 37 -9 0 -16 -8 -17 -17 0 -14 -2 -13 -9 5 -5 12 -18 22 -28 22 -10 0 -24
6 -30 12 -10 10 -17 10 -32 0 -15 -9 -31 -9 -62 -2 -57 13 -56 13 -60 -7z
m184 -131 c-2 -19 -9 -44 -18 -57 -12 -18 -12 -27 -3 -49 9 -19 15 -23 21 -14
5 9 8 10 8 1 0 -6 -4 -14 -10 -18 -5 -3 -7 -13 -3 -23 4 -13 2 -12 -9 3 -8 11
-16 29 -17 40 -3 42 0 151 6 169 5 19 6 19 16 0 6 -10 10 -34 9 -52z m-55 11
c-3 -10 -5 -2 -5 17 0 19 2 27 5 18 2 -10 2 -26 0 -35z m61 -88 c1 -14 -2 -25
-6 -25 -7 0 -8 31 -3 48 3 8 7 -2 9 -23z m177 -232 c-3 -15 -2 -22 4 -19 5 4
9 -21 9 -61 -1 -55 -2 -61 -8 -33 -4 20 -8 27 -9 15 l-2 -20 -9 20 c-10 24
-13 119 -4 128 13 13 25 -6 19 -30z m101 -77 c-4 -17 -13 -75 -22 -130 -10
-68 -21 -108 -37 -130 l-22 -31 -3 43 c-2 24 2 66 7 93 6 28 11 65 11 84 0 19
7 52 16 74 12 31 19 38 36 33 16 -4 19 -10 14 -36z m-2162 -11 c3 -10 -2 -10
-25 -2 -16 6 -29 14 -29 18 0 11 49 -3 54 -16z m2213 -17 c-3 -8 -6 -5 -6 6
-1 11 2 17 5 13 3 -3 4 -12 1 -19z m-2047 -105 c0 -23 -23 -9 -27 16 -3 20 -1
22 12 11 8 -7 15 -19 15 -27z m-270 -59 c0 -2 -9 0 -20 6 -11 6 -20 13 -20 16
0 2 9 0 20 -6 11 -6 20 -13 20 -16z m258 -15 c-3 -8 -7 -3 -11 10 -4 17 -3 21
5 13 5 -5 8 -16 6 -23z m1288 -148 c-3 -5 -16 -11 -28 -14 -22 -6 -22 -5 -4 8
22 17 40 20 32 6z m-73 -50 c-3 -10 0 -22 6 -25 6 -4 11 -2 11 4 0 7 7 9 16 6
20 -8 41 4 25 13 -7 5 -2 12 14 21 14 7 28 11 31 7 8 -8 -47 -56 -65 -57 -8 0
-11 -3 -8 -7 9 -9 -13 -34 -24 -27 -5 3 -6 -1 -3 -9 3 -8 -3 -20 -13 -28 -16
-13 -17 -12 -4 4 10 13 11 17 1 17 -7 0 -19 8 -27 18 -13 15 -13 15 -8 -8 6
-22 4 -20 -14 8 -12 18 -21 36 -21 40 0 11 72 52 81 46 4 -2 5 -13 2 -23z
m-104 -112 c36 -59 36 -59 12 -59 -25 0 -81 20 -81 30 0 10 29 80 34 80 1 0
17 -23 35 -51z m765 -6 c21 -146 22 -141 -37 -226 l-55 -77 -25 62 c-14 35
-32 84 -40 110 -13 43 -13 48 2 53 9 3 43 32 76 65 33 33 62 60 66 60 3 0 9
-21 13 -47z m-1134 -2 c0 -5 3 -18 6 -28 6 -16 5 -16 -9 2 -14 18 -16 18 -17
3 0 -17 33 -42 42 -32 3 3 8 -2 11 -11 5 -12 -1 -11 -33 5 -37 19 -39 22 -28
45 11 24 28 34 28 16z m130 -26 c0 -8 -2 -15 -4 -15 -2 0 -6 7 -10 15 -3 8 -1
15 4 15 6 0 10 -7 10 -15z m-209 -21 c27 -13 29 -17 15 -27 -20 -15 -7 -40 14
-27 12 8 11 10 -4 10 -19 0 -19 1 -1 13 15 12 25 11 66 -10 30 -14 49 -30 50
-41 0 -9 4 -41 8 -69 4 -29 5 -53 2 -53 -3 0 -31 20 -62 44 -55 43 -110 112
-124 155 -8 25 -3 26 36 5z m1781 -10 c-2 -13 -9 -21 -16 -18 -18 7 -14 40 4
40 12 0 15 -7 12 -22z m-1499 9 c4 -3 -3 -16 -16 -27 -12 -12 -23 -35 -24 -51
l-2 -30 11 30 c13 34 46 67 59 59 12 -7 11 -71 -1 -173 -8 -57 -20 -102 -41
-143 -17 -33 -32 -58 -34 -56 -4 4 -40 232 -49 310 -6 49 9 68 34 45 10 -10
12 -8 6 6 -3 11 -4 23 0 28 6 10 47 12 57 2z m302 -3 c-3 -5 -12 -10 -18 -10
-7 0 -6 4 3 10 19 12 23 12 15 0z m152 -15 c0 -8 -4 -12 -9 -9 -5 3 -6 10 -3
15 9 13 12 11 12 -6z m-23 -36 c-3 -5 -10 -7 -15 -3 -5 3 -7 10 -3 15 3 5 10
7 15 3 5 -3 7 -10 3 -15z m1046 10 c0 -5 -5 -7 -11 -4 -6 4 -10 1 -8 -6 3 -28
-1 -40 -13 -33 -7 5 -8 3 -3 -5 4 -8 -5 -24 -24 -43 -17 -17 -31 -28 -31 -25
0 6 29 59 57 105 14 23 33 30 33 11z m46 -25 c7 -38 12 -44 32 -37 26 9 -29
-31 -61 -45 -15 -7 -37 -12 -47 -12 -17 0 -14 9 23 63 23 35 43 63 45 62 2 -2
5 -15 8 -31z m-1370 7 c8 -4 -4 -29 -32 -71 -24 -36 -44 -60 -44 -54 0 6 3 14
7 18 4 4 6 25 4 46 -4 59 6 82 32 74 12 -3 27 -9 33 -13z m265 -15 c5 3 15 1
22 -4 7 -5 25 -12 41 -16 23 -6 27 -9 15 -17 -19 -12 -72 -12 -64 1 3 6 -1 10
-9 10 -9 0 -16 5 -16 10 0 6 -4 9 -9 8 -9 -3 -11 2 -11 25 0 6 5 4 11 -6 6 -9
15 -15 20 -11z m1179 0 c0 -3 -4 -8 -10 -11 -5 -3 -10 -1 -10 4 0 6 5 11 10
11 6 0 10 -2 10 -4z m-1312 -13 c-10 -2 -26 -2 -35 0 -10 3 -2 5 17 5 19 0 27
-2 18 -5z m1398 -18 c26 -13 27 -15 7 -15 -12 0 -24 -4 -27 -8 -6 -10 -66 -15
-66 -5 0 12 33 43 45 43 7 0 26 -7 41 -15z m-1455 -8 c-1 -12 -15 -9 -19 4 -3
6 1 10 8 8 6 -3 11 -8 11 -12z m414 -5 c-3 -3 -11 0 -18 7 -9 10 -8 11 6 5 10
-3 15 -9 12 -12z m-239 -62 c38 -33 125 -98 194 -144 115 -78 196 -144 187
-153 -2 -2 -21 4 -42 12 -29 13 -55 15 -115 9 -69 -6 -79 -4 -89 12 -10 18
-10 17 -11 -5 0 -21 -3 -23 -37 -17 -32 6 -58 28 -170 143 -73 75 -132 138
-130 139 5 5 132 64 138 64 3 0 37 -27 75 -60z m-196 46 c0 -3 -4 -8 -10 -11
-5 -3 -10 -1 -10 4 0 6 5 11 10 11 6 0 10 -2 10 -4z m460 -51 c30 -29 54 -65
63 -91 8 -24 12 -44 10 -44 -20 0 -145 71 -208 117 -76 57 -77 58 -49 65 16 4
53 5 82 4 48 -2 57 -7 102 -51z m300 10 c0 -8 -4 -15 -10 -15 -5 0 -7 7 -4 15
4 8 8 15 10 15 2 0 4 -7 4 -15z m545 -15 c-3 -6 -19 -17 -36 -25 -25 -13 -29
-13 -29 -1 0 8 12 19 28 24 36 14 44 14 37 2z m-538 -20 c0 -3 3 -60 7 -127 8
-121 0 -313 -13 -296 -3 4 -28 74 -55 154 l-49 146 37 65 c25 42 44 64 56 64
10 0 18 -3 17 -6z m447 -9 c-5 -5 -22 -13 -39 -17 -27 -7 -29 -6 -17 9 8 9 23
17 35 19 27 5 34 1 21 -11z m322 2 c51 -16 53 -17 33 -31 -12 -8 -32 -14 -45
-14 -13 0 -24 -4 -24 -8 0 -3 -13 -5 -30 -2 -22 3 -30 0 -30 -11 0 -8 -13 -20
-30 -26 -16 -5 -30 -8 -30 -5 0 12 82 114 92 114 6 0 35 -8 64 -17z m-2246
-20 c8 -8 45 -33 81 -56 93 -59 210 -157 202 -170 -3 -5 -1 -7 5 -4 5 4 42
-24 80 -62 l69 -69 12 -79 c28 -197 36 -303 23 -303 -10 0 -205 244 -245 307
-18 28 -48 74 -68 104 -20 30 -48 77 -64 104 -51 94 -79 140 -107 182 -43 63
-36 90 12 46z m2137 15 c-2 -7 -9 -12 -15 -11 -6 1 -16 -11 -24 -27 -7 -17
-16 -30 -20 -30 -5 0 -8 -9 -8 -19 0 -23 -65 -48 -149 -58 l-53 -6 64 66 c61
63 68 67 122 73 31 4 59 11 62 15 8 14 26 10 21 -3z m-1409 -39 c23 -22 39
-45 36 -51 -4 -6 -3 -8 4 -5 9 6 147 -131 139 -139 -11 -11 -224 69 -240 90
-5 6 -6 -2 -2 -17 3 -16 2 -27 -2 -24 -4 3 -35 8 -68 12 -33 3 -61 8 -63 9 -5
6 33 66 41 66 5 0 6 4 3 9 -9 15 64 91 88 91 12 0 41 -18 64 -41z m-898 15 c0
-3 -30 -19 -67 -36 -45 -21 -68 -28 -71 -20 -2 7 -9 12 -16 12 -7 0 -13 7 -13
16 0 10 7 14 18 11 10 -3 23 1 30 9 11 13 119 21 119 8z m-282 -11 c-10 -2
-18 -9 -18 -14 0 -5 -6 -9 -14 -9 -8 0 -35 -9 -60 -20 -52 -22 -58 -15 -21 24
20 22 32 26 77 25 29 -1 45 -3 36 -6z m2337 -61 c-56 -55 -70 -64 -73 -48 -6
27 28 68 78 94 71 35 70 26 -5 -46z m-3475 48 c0 -5 -2 -10 -4 -10 -3 0 -8 5
-11 10 -3 6 -1 10 4 10 6 0 11 -4 11 -10z m200 -112 c0 -11 -90 -10 -126 1
-16 5 -51 13 -78 16 l-50 7 39 37 38 36 89 -44 c48 -24 88 -48 88 -53z m3785
88 c11 -2 39 -9 62 -16 51 -16 52 -10 -23 -197 -99 -245 -130 -296 -270 -450
-200 -220 -273 -278 -396 -318 -45 -15 -94 -35 -109 -46 -15 -10 -29 -19 -32
-19 -7 0 -24 78 -37 169 -12 81 -14 405 -4 471 6 35 13 44 46 61 69 35 116 86
139 150 12 33 29 64 38 68 9 5 86 8 171 8 103 0 162 4 175 11 17 10 9 12 -45
10 -88 -3 -185 1 -178 7 11 12 269 76 279 70 5 -4 15 -2 22 3 7 6 28 14 47 20
32 8 50 8 115 -2z m-667 -161 c-32 -58 -53 -83 -84 -101 -22 -13 -43 -24 -45
-24 -6 0 5 108 11 113 3 1 23 16 45 31 22 16 45 34 50 40 6 7 21 20 35 29 41
28 37 -1 -12 -88z m-3398 64 c-7 -11 -14 -18 -17 -15 -3 3 0 12 7 21 18 21 23
19 10 -6z m530 1 l25 -7 -25 -10 c-49 -20 -95 -24 -115 -10 -10 8 -15 19 -11
25 8 13 87 14 126 2z m1850 -41 c30 -6 70 -15 89 -21 l34 -11 -52 -32 c-38
-24 -47 -34 -35 -39 19 -7 100 45 97 62 -2 8 5 9 19 3 14 -5 28 -24 37 -54 9
-25 20 -49 25 -54 9 -9 3 49 -9 80 -10 24 24 23 77 -3 24 -12 46 -16 52 -11 6
5 45 11 87 15 93 8 154 -11 171 -53 27 -71 133 -529 125 -538 -4 -3 -38 21
-78 53 -39 33 -86 67 -105 77 -19 9 -34 22 -34 28 0 5 -4 7 -10 4 -5 -3 -7 0
-4 9 3 9 -3 16 -18 20 -77 21 -105 31 -118 42 -8 6 -50 24 -92 39 -43 15 -78
30 -78 33 0 3 14 20 31 38 25 26 27 32 15 37 -9 4 -16 1 -16 -6 0 -8 -4 -6
-10 3 -5 8 -10 10 -10 5 0 -6 -12 -12 -27 -13 -14 -1 -34 -9 -43 -17 -23 -21
-40 -19 -112 15 -85 41 -134 77 -192 145 l-49 57 18 55 18 54 71 -6 c39 -4 96
-11 126 -16z m-583 -258 c29 -52 51 -96 49 -98 -2 -2 -26 7 -53 20 -51 26
-299 120 -345 131 -52 12 -28 26 45 27 39 1 97 5 127 9 117 17 118 16 177 -89z
m2923 35 c0 -2 -7 -7 -16 -10 -8 -3 -12 -2 -9 4 6 10 25 14 25 6z m-3776 -60
c-3 -8 -14 -16 -26 -19 -19 -5 -19 -5 -2 14 20 22 36 25 28 5z m116 8 c0 -8
-19 -13 -24 -6 -3 5 1 9 9 9 8 0 15 -2 15 -3z m1156 -43 c-13 -20 -26 -11 -26
16 0 25 1 26 16 11 9 -9 13 -21 10 -27z m97 -42 c34 -17 74 -42 88 -55 18 -17
42 -26 80 -30 30 -4 59 -11 64 -18 6 -6 15 -11 20 -11 25 -1 115 -38 110 -45
-3 -5 4 -7 16 -5 23 5 104 -47 114 -72 3 -9 12 -13 21 -9 8 3 12 2 9 -3 -3 -5
-1 -12 5 -16 6 -4 8 -11 5 -16 -3 -5 1 -6 9 -3 9 3 14 10 11 15 -3 4 9 3 27
-3 18 -6 63 -41 99 -77 80 -81 132 -178 149 -283 18 -104 8 -303 -20 -393 -22
-71 -98 -225 -111 -225 -4 0 -20 24 -37 53 -39 69 -89 130 -312 382 -288 325
-380 434 -391 462 -5 14 -23 92 -39 174 -29 143 -30 148 -13 178 10 17 22 31
26 31 4 0 36 -14 70 -31z m2300 24 c-7 -2 -21 -2 -30 0 -10 3 -4 5 12 5 17 0
24 -2 18 -5z m240 -20 c-7 -2 -21 -2 -30 0 -10 3 -4 5 12 5 17 0 24 -2 18 -5z
m-13 -79 c0 -13 -27 -1 -38 16 -12 20 -12 21 13 4 14 -9 25 -18 25 -20z m37
-20 c-3 -3 -12 -4 -19 -1 -8 3 -5 6 6 6 11 1 17 -2 13 -5z m48 -24 c3 -5 2
-10 -4 -10 -5 0 -13 5 -16 10 -3 6 -2 10 4 10 5 0 13 -4 16 -10z m-810 -283
c21 -48 35 -90 33 -93 -3 -2 -22 35 -43 83 -22 49 -42 92 -47 98 -4 5 -8 14
-8 19 0 25 31 -26 65 -107z m8 77 c-4 -13 -26 -11 -30 3 -2 6 4 10 14 9 10 -2
17 -7 16 -12z"/>
<path d="M2907 4234 c6 -15 23 -19 23 -5 0 5 -7 11 -14 14 -10 4 -13 1 -9 -9z"/>
<path d="M3646 4145 c10 -8 26 -14 34 -15 8 0 2 7 -14 15 -36 19 -45 19 -20 0z"/>
<path d="M4145 4009 c-4 -6 -5 -12 -2 -15 2 -3 7 2 10 11 7 17 1 20 -8 4z"/>
<path d="M4171 3894 c0 -11 3 -14 6 -6 3 7 2 16 -1 19 -3 4 -6 -2 -5 -13z"/>
<path d="M4904 3994 c-18 -14 -18 -14 6 -3 31 14 36 19 24 19 -6 0 -19 -7 -30
-16z"/>
<path d="M2730 3965 c0 -14 29 -35 35 -26 3 6 -4 15 -15 21 -11 6 -20 8 -20 5z"/>
<path d="M2955 3800 c-7 -12 2 -30 16 -30 12 0 12 27 0 35 -5 3 -12 1 -16 -5z"/>
<path d="M2917 3793 c-4 -3 -7 -11 -7 -17 0 -6 5 -5 12 2 6 6 9 14 7 17 -3 3
-9 2 -12 -2z"/>
<path d="M4958 3913 c6 -2 18 -2 25 0 6 3 1 5 -13 5 -14 0 -19 -2 -12 -5z"/>
<path d="M4834 3893 c4 -5 31 -9 59 -9 35 -1 45 1 32 7 -26 10 -101 11 -91 2z"/>
<path d="M4845 3746 c17 -13 32 -22 35 -19 3 2 -3 9 -13 14 -9 6 -15 14 -12
20 4 5 -4 9 -17 9 -22 0 -22 -1 7 -24z"/>
<path d="M3435 3690 c-4 -6 -10 -8 -15 -5 -13 8 -80 -63 -80 -85 0 -11 4 -20
8 -20 15 0 53 60 46 72 -4 6 -3 9 2 5 5 -3 23 6 39 19 17 13 25 24 18 24 -6 0
-15 -5 -18 -10z"/>
<path d="M3640 3630 c0 -8 5 -22 10 -30 9 -13 10 -13 10 0 0 8 -5 22 -10 30
-9 13 -10 13 -10 0z"/>
<path d="M3660 3571 c0 -6 4 -13 10 -16 6 -3 7 1 4 9 -7 18 -14 21 -14 7z"/>
<path d="M3713 3530 c2 -3 12 -24 23 -47 12 -27 34 -51 64 -69 57 -36 108 -55
115 -44 3 5 14 7 25 5 11 -2 20 1 20 6 0 6 4 8 9 4 6 -3 9 4 8 15 -1 11 -6 19
-12 16 -7 -2 -10 6 -7 23 3 24 -2 30 -50 55 -29 15 -50 24 -45 20 4 -4 -4 -15
-19 -24 -14 -10 -24 -21 -22 -26 2 -4 -12 -9 -30 -11 -29 -4 -32 -2 -28 19 2
13 -1 29 -7 36 -8 10 -5 11 15 3 18 -7 29 -6 37 2 19 19 13 22 -44 22 -30 0
-54 -2 -52 -5z"/>
<path d="M5710 5330 c-8 -5 -10 -10 -5 -10 6 0 17 5 25 10 8 5 11 10 5 10 -5
0 -17 -5 -25 -10z"/>
<path d="M1160 5315 c0 -8 9 -19 20 -25 23 -12 25 -3 6 23 -16 21 -26 22 -26
2z"/>
<path d="M4100 5277 c0 -43 1 -43 30 -39 34 5 36 11 15 52 -24 45 -45 39 -45
-13z"/>
<path d="M1080 5276 c0 -2 7 -7 16 -10 8 -3 12 -2 9 4 -6 10 -25 14 -25 6z"/>
<path d="M1150 5256 c0 -3 9 -10 20 -16 11 -6 20 -8 20 -6 0 3 -9 10 -20 16
-11 6 -20 8 -20 6z"/>
<path d="M3660 5241 c0 -7 7 -28 15 -48 20 -47 12 -53 -23 -20 -35 34 -47 34
-88 -2 -24 -22 -29 -31 -18 -35 22 -9 42 3 48 30 7 25 8 24 52 -25 49 -55 88
-68 80 -28 -15 71 -16 100 -5 113 9 11 8 14 -9 14 -11 0 -27 3 -36 6 -9 3 -16
1 -16 -5z"/>
<path d="M2474 5186 c-21 -15 -42 -62 -22 -50 11 7 50 -31 41 -39 -3 -3 -2
-11 2 -17 6 -9 9 -9 15 0 6 9 11 7 19 -7 6 -12 18 -23 27 -27 9 -3 2 11 -17
35 -19 24 -35 58 -39 81 -5 37 -6 38 -26 24z"/>
<path d="M7031 5127 c-8 -15 -11 -30 -8 -34 4 -3 0 -16 -8 -29 -13 -20 -11
-26 27 -83 49 -73 67 -78 68 -18 0 23 1 60 3 82 2 34 -2 42 -30 60 -17 11 -33
26 -35 34 -2 9 -8 4 -17 -12z"/>
<path d="M3320 5129 c0 -5 5 -7 10 -4 6 3 10 8 10 11 0 2 -4 4 -10 4 -5 0 -10
-5 -10 -11z"/>
<path d="M1296 5111 c-23 -84 -13 -116 27 -87 12 9 37 27 55 41 36 26 34 29
-32 49 -41 12 -46 12 -50 -3z"/>
<path d="M3057 5114 c-4 -4 -7 -17 -7 -28 1 -19 1 -20 11 -3 11 19 8 43 -4 31z"/>
<path d="M6579 5077 c-6 -23 -22 -63 -35 -89 -21 -41 -27 -46 -46 -39 -12 4
-23 16 -24 26 -4 26 -20 39 -40 31 -15 -6 -15 -9 5 -30 13 -14 49 -34 81 -46
56 -21 59 -21 91 -4 35 17 96 64 84 64 -3 0 -20 -8 -38 -17 -18 -9 -35 -16
-39 -15 -5 1 -8 -2 -8 -6 0 -5 -11 -14 -25 -20 -14 -6 -25 -8 -25 -4 0 13 33
56 54 72 23 16 24 17 81 28 l40 8 -28 19 c-18 11 -31 15 -35 8 -8 -11 -46 -33
-58 -33 -4 0 4 13 19 28 l27 28 -35 17 -34 16 -12 -42z"/>
<path d="M4371 5077 c2 -1 13 -9 24 -17 19 -14 19 -14 6 3 -7 9 -18 17 -24 17
-6 0 -8 -1 -6 -3z"/>
<path d="M6829 5048 c-8 -7 -28 -30 -43 -51 -15 -20 -31 -35 -37 -32 -5 3 -6
0 -3 -8 3 -10 -9 -22 -39 -36 -24 -11 -49 -21 -55 -21 -7 0 -12 -4 -12 -10 0
-13 16 -13 43 1 12 6 7 -2 -13 -19 -40 -36 -26 -41 35 -13 44 20 126 106 156
164 19 35 19 37 1 37 -10 0 -25 -6 -33 -12z"/>
<path d="M1227 5035 c-8 -18 11 -31 25 -17 11 11 3 32 -12 32 -4 0 -10 -7 -13
-15z"/>
<path d="M6233 5001 c-55 -22 -59 -27 -27 -35 38 -10 127 23 112 41 -13 16
-32 15 -85 -6z"/>
<path d="M795 4994 c-30 -13 -29 -13 23 -12 28 1 51 2 50 3 -22 18 -47 21 -73
9z"/>
<path d="M2343 4950 c2 -46 13 -53 19 -12 5 33 0 52 -13 52 -5 0 -8 -18 -6
-40z"/>
<path d="M1909 4972 c-21 -2 -28 -12 -41 -52 -17 -53 -14 -62 28 -67 15 -2 35
12 68 52 26 30 54 55 62 55 9 0 13 4 10 9 -5 8 -70 10 -127 3z"/>
<path d="M4508 4933 c12 -10 26 -31 30 -47 l8 -28 11 25 c11 24 9 27 -30 47
-34 17 -38 17 -19 3z"/>
<path d="M974 4926 c-3 -8 -1 -24 6 -35 11 -22 50 -27 97 -15 27 7 21 24 -9
24 -11 0 -31 9 -45 20 -30 24 -42 25 -49 6z"/>
<path d="M5156 4918 c1 -13 3 -27 3 -31 1 -5 5 -6 10 -3 10 6 2 56 -8 56 -4 0
-7 -10 -5 -22z"/>
<path d="M6363 4926 c-54 -12 -56 -26 -4 -26 27 0 41 5 45 16 8 21 9 21 -41
10z"/>
<path d="M6870 4926 c0 -10 28 -13 41 -5 10 6 7 9 -13 9 -16 0 -28 -2 -28 -4z"/>
<path d="M4468 4907 c-9 -7 -13 -18 -10 -24 7 -11 62 -37 67 -31 4 6 -25 68
-33 68 -4 0 -15 -6 -24 -13z"/>
<path d="M4791 4888 c-12 -32 7 -60 31 -47 17 9 17 12 3 39 -19 36 -23 37 -34
8z"/>
<path d="M6793 4879 c-38 -11 -44 -22 -10 -18 12 2 27 0 33 -4 7 -4 23 -1 37
6 15 8 52 12 93 11 37 -2 75 1 83 6 21 13 -193 11 -236 -1z"/>
<path d="M6925 4845 c33 -7 55 -13 48 -14 -6 -1 -30 -17 -53 -36 l-42 -35 31
6 c21 5 31 3 31 -6 0 -9 4 -9 13 -2 6 5 29 17 51 26 32 13 37 14 33 1 -4 -9
-1 -12 8 -8 8 3 12 9 9 14 -6 10 24 7 41 -3 7 -4 9 6 7 29 l-4 36 -54 -6 c-31
-3 -54 -2 -54 4 0 5 -28 8 -62 8 l-63 -2 60 -12z"/>
<path d="M2775 4812 c-2 -7 2 -15 10 -18 21 -8 19 -37 -3 -57 -10 -10 -43 -26
-73 -37 -40 -15 -45 -19 -20 -15 18 3 52 5 75 6 31 0 36 2 21 9 -18 7 -18 9
-3 15 9 4 20 19 23 34 3 16 17 34 30 41 35 19 31 27 -15 32 -26 2 -41 -1 -45
-10z"/>
<path d="M1551 4784 c0 -11 3 -14 6 -6 3 7 2 16 -1 19 -3 4 -6 -2 -5 -13z"/>
<path d="M6100 4774 c0 -28 -64 -86 -141 -128 -75 -41 -76 -42 -81 -20 -2 9
-8 -4 -14 -29 -5 -25 -6 -43 -1 -40 4 3 11 -5 14 -17 4 -16 11 -20 27 -16 11
2 50 10 86 16 36 6 108 23 162 37 75 20 97 30 101 45 5 18 2 19 -36 16 -23 -3
-109 -19 -190 -37 -82 -18 -151 -30 -154 -27 -3 2 35 25 83 50 49 25 103 54
119 65 17 12 39 21 50 21 43 1 46 15 10 50 -30 29 -35 31 -35 14z"/>
<path d="M3676 4731 c-4 -5 3 -7 14 -4 23 6 26 13 6 13 -8 0 -17 -4 -20 -9z"/>
<path d="M2560 4724 c0 -2 10 -8 21 -15 17 -8 20 -8 17 2 -4 11 -38 23 -38 13z"/>
<path d="M3305 4716 c-6 -14 -4 -23 9 -30 9 -6 37 -30 63 -53 50 -46 76 -53
104 -27 20 18 43 10 35 -12 -3 -8 0 -14 7 -14 8 0 12 15 12 40 0 23 -4 40 -11
40 -6 0 -24 12 -39 26 -25 23 -35 26 -78 21 -27 -2 -53 -10 -58 -18 -10 -16
-25 -4 -31 26 -5 20 -5 20 -13 1z"/>
<path d="M7160 4697 c-14 -6 -71 -10 -127 -10 -57 0 -103 -4 -103 -8 0 -4 -3
-14 -6 -22 -7 -20 65 -47 146 -54 89 -7 67 9 -42 32 -49 10 -88 20 -88 24 0 3
44 6 98 6 66 0 108 5 132 16 38 17 29 33 -10 16z"/>
<path d="M1612 4659 c5 -16 -22 -50 -34 -43 -5 3 -15 -11 -23 -30 -9 -20 -19
-36 -24 -36 -4 0 -6 -11 -3 -25 4 -23 9 -25 56 -25 49 0 55 3 85 40 27 34 31
45 24 67 -5 15 -16 30 -24 33 -8 4 -25 12 -38 19 -19 10 -22 10 -19 0z"/>
<path d="M6323 4645 c-6 -18 20 -51 46 -58 26 -6 28 49 2 63 -27 14 -41 13
-48 -5z"/>
<path d="M2860 4615 c7 -8 19 -15 26 -15 8 0 11 6 8 15 -4 8 -15 15 -26 15
-17 0 -18 -3 -8 -15z"/>
<path d="M6885 4610 c-9 -14 40 -32 100 -36 l50 -4 -70 24 c-38 14 -71 25 -72
26 -1 0 -5 -5 -8 -10z"/>
<path d="M5043 4595 c-3 -9 -3 -18 -1 -21 3 -3 8 4 11 16 6 23 -1 27 -10 5z"/>
<path d="M1758 4574 c-4 -3 1 -18 10 -33 10 -18 48 -44 109 -75 52 -27 92 -50
90 -53 -3 -2 -25 1 -48 8 -24 7 -82 12 -129 13 -50 0 -75 3 -60 7 19 5 21 7 5
7 -11 0 -29 -3 -40 -8 -19 -7 -19 -8 -2 -15 15 -6 17 -14 12 -43 l-6 -35 32
27 c28 24 38 27 88 22 81 -6 152 -26 145 -38 -4 -7 -2 -8 5 -4 6 4 18 3 26 -4
14 -12 76 -5 105 11 13 7 12 8 -3 9 -26 0 -89 34 -112 60 -11 13 -57 47 -102
76 -45 30 -85 58 -88 64 -7 11 -28 13 -37 4z"/>
<path d="M4046 4505 c10 -43 53 -139 60 -133 6 7 -43 139 -57 153 -7 7 -8 0
-3 -20z"/>
<path d="M3840 4495 c-11 -13 -10 -14 4 -9 9 3 16 10 16 15 0 13 -6 11 -20 -6z"/>
<path d="M2493 4473 c-15 -5 -18 -33 -4 -33 21 0 41 13 41 26 0 14 -14 17 -37
7z"/>
<path d="M4887 4462 c-24 -26 -21 -35 14 -56 29 -17 31 -17 44 1 20 26 18 51
-4 63 -27 14 -35 13 -54 -8z"/>
<path d="M4350 4455 c1 -11 1 -22 0 -25 -16 -41 0 -49 61 -29 47 16 63 33 24
26 -16 -2 -39 -1 -50 4 -18 9 -18 9 3 5 12 -2 22 0 22 5 0 5 -8 9 -18 9 -10 0
-24 6 -31 13 -10 10 -12 8 -11 -8z"/>
<path d="M4550 4460 c8 -5 24 -10 34 -10 26 0 18 6 -19 14 -22 5 -26 4 -15 -4z"/>
<path d="M5545 4440 c-3 -5 -1 -10 4 -10 6 0 11 5 11 10 0 6 -2 10 -4 10 -3 0
-8 -4 -11 -10z"/>
<path d="M2630 4395 c33 -19 50 -18 26 0 -11 8 -27 15 -35 15 -10 -1 -7 -6 9
-15z"/>
<path d="M4463 4393 c9 -2 25 -2 35 0 9 3 1 5 -18 5 -19 0 -27 -2 -17 -5z"/>
<path d="M2594 4369 c-19 -22 -19 -22 4 -10 12 6 22 16 22 21 0 15 -5 12 -26
-11z"/>
<path d="M2906 4376 c3 -8 13 -12 27 -8 20 5 20 6 1 13 -29 11 -34 10 -28 -5z"/>
<path d="M1863 4369 c-12 -12 -124 -29 -117 -17 16 26 -63 -23 -83 -51 -14
-20 -13 -24 3 -36 24 -18 16 -18 -35 0 -33 11 -41 12 -41 1 0 -17 56 -41 153
-65 43 -11 86 -26 95 -34 35 -29 46 -29 15 0 -18 17 -33 34 -33 37 0 4 14 15
31 25 33 20 32 24 -27 70 -30 24 -27 39 5 22 13 -7 22 -8 26 -1 3 5 -2 10 -12
10 -13 0 -8 6 15 20 17 11 32 22 32 25 0 9 -16 5 -27 -6z m-68 -71 c14 -6 25
-16 25 -21 0 -5 -7 -3 -17 4 -14 12 -16 12 -11 -1 3 -8 13 -15 24 -15 10 0 25
-4 33 -9 11 -7 11 -10 0 -17 -26 -16 -53 -9 -86 23 -18 18 -33 36 -33 40 0 12
35 10 65 -4z m-80 -16 c-3 -3 -11 0 -18 7 -9 10 -8 11 6 5 10 -3 15 -9 12 -12z"/>
<path d="M2198 4373 c7 -3 16 -2 19 1 4 3 -2 6 -13 5 -11 0 -14 -3 -6 -6z"/>
<path d="M2687 4369 c7 -7 15 -10 18 -7 3 3 -2 9 -12 12 -14 6 -15 5 -6 -5z"/>
<path d="M2835 4349 c-3 -4 2 -6 10 -5 21 3 28 13 10 13 -9 0 -18 -4 -20 -8z"/>
<path d="M1208 4343 c7 -3 16 -2 19 1 4 3 -2 6 -13 5 -11 0 -14 -3 -6 -6z"/>
<path d="M2788 4333 c6 -2 18 -2 25 0 6 3 1 5 -13 5 -14 0 -19 -2 -12 -5z"/>
<path d="M1155 4320 c-3 -6 1 -7 9 -4 18 7 21 14 7 14 -6 0 -13 -4 -16 -10z"/>
<path d="M5487 4309 c-9 -5 -23 -7 -30 -3 -9 5 -9 4 -1 -5 9 -10 18 -10 40 3
16 8 25 15 19 15 -5 0 -18 -4 -28 -10z"/>
<path d="M876 4269 c-15 -36 -15 -43 -1 -72 21 -44 91 -124 101 -114 4 4 -2
17 -13 30 -10 12 -34 45 -52 74 -31 50 -32 52 -17 87 8 20 11 36 7 36 -5 0
-16 -18 -25 -41z"/>
<path d="M5553 4295 c0 -8 4 -12 9 -9 5 3 6 10 3 15 -9 13 -12 11 -12 -6z"/>
<path d="M5430 4280 c-9 -6 -10 -10 -3 -10 6 0 15 5 18 10 8 12 4 12 -15 0z"/>
<path d="M2565 4230 c3 -5 8 -10 11 -10 2 0 4 5 4 10 0 6 -5 10 -11 10 -5 0
-7 -4 -4 -10z"/>
<path d="M4530 4220 c-6 -11 -8 -20 -6 -20 3 0 10 9 16 20 6 11 8 20 6 20 -3
0 -10 -9 -16 -20z"/>
<path d="M1600 4207 c0 -17 38 -39 52 -31 7 4 8 3 4 -4 -4 -7 -3 -12 3 -12 5
0 15 -2 23 -5 7 -3 18 5 24 18 9 21 8 23 -17 19 -15 -2 -38 3 -51 12 -27 19
-38 20 -38 3z"/>
<path d="M1126 4171 c-8 -13 38 -41 53 -32 9 6 5 13 -13 24 -29 20 -33 20 -40
8z"/>
<path d="M879 4116 c12 -41 19 -52 28 -44 7 5 18 6 24 2 8 -5 9 -3 5 5 -5 7
-14 10 -21 7 -9 -3 -11 2 -8 15 4 12 -4 28 -20 44 l-24 25 16 -54z"/>
<path d="M2803 4128 c-9 -11 -8 -16 8 -26 20 -13 22 -9 10 21 -6 16 -9 17 -18
5z"/>
<path d="M2910 4130 c-9 -6 -10 -10 -3 -10 6 0 15 5 18 10 8 12 4 12 -15 0z"/>
<path d="M1895 4118 c-25 -14 -77 -70 -70 -76 6 -6 95 38 95 47 0 4 15 6 33 4
28 -3 29 -2 10 7 -13 5 -23 14 -23 20 0 13 -20 12 -45 -2z"/>
<path d="M846 4077 c8 -47 -2 -59 -71 -82 -103 -35 -47 -49 63 -16 57 18 62
18 63 3 0 -13 2 -13 8 3 5 11 6 26 4 33 -3 6 2 12 10 12 9 0 19 5 23 12 5 8 2
9 -11 4 -26 -10 -73 15 -85 44 -8 21 -8 19 -4 -13z"/>
<path d="M1112 4099 c5 -15 135 -89 158 -89 18 0 -2 14 -94 65 -39 22 -67 32
-64 24z"/>
<path d="M2025 4100 c-13 -6 -15 -9 -5 -9 8 0 22 4 30 9 18 12 2 12 -25 0z"/>
<path d="M5931 4054 c0 -11 3 -14 6 -6 3 7 2 16 -1 19 -3 4 -6 -2 -5 -13z"/>
<path d="M5859 4039 c18 -11 35 -18 38 -15 5 5 -50 36 -64 36 -4 0 7 -9 26
-21z"/>
<path d="M5708 4011 c-68 -14 -76 -18 -67 -34 6 -9 14 -15 20 -12 5 4 9 1 9
-6 0 -10 3 -10 12 -1 7 7 17 12 23 12 5 0 3 -5 -5 -10 -13 -8 -13 -10 2 -10 9
0 20 5 23 11 4 6 13 8 21 5 7 -3 16 -1 20 5 3 5 15 7 26 3 13 -4 18 -2 14 4
-3 6 1 18 10 26 8 9 11 16 6 16 -6 0 -16 2 -24 4 -7 2 -48 -4 -90 -13z"/>
<path d="M5935 3990 c-3 -5 -1 -10 4 -10 6 0 11 5 11 10 0 6 -2 10 -4 10 -3 0
-8 -4 -11 -10z"/>
<path d="M869 3933 c-13 -16 -12 -17 4 -4 9 7 17 15 17 17 0 8 -8 3 -21 -13z"/>
<path d="M1966 3911 c-3 -4 5 -13 17 -18 19 -9 23 -8 23 8 0 19 -30 27 -40 10z"/>
<path d="M2268 3913 c7 -3 16 -2 19 1 4 3 -2 6 -13 5 -11 0 -14 -3 -6 -6z"/>
<path d="M826 3884 c-9 -24 -2 -26 12 -4 7 11 8 20 3 20 -5 0 -12 -7 -15 -16z"/>
<path d="M6100 3884 c0 -15 22 -44 34 -44 20 0 67 26 60 33 -3 3 -12 3 -19 1
-7 -3 -16 -1 -20 5 -6 11 -55 16 -55 5z"/>
<path d="M5437 3869 c7 -7 15 -10 18 -7 3 3 -2 9 -12 12 -14 6 -15 5 -6 -5z"/>
<path d="M1966 3854 c-4 -9 -13 -14 -21 -10 -13 5 -13 2 0 -24 9 -17 21 -30
28 -29 9 0 9 2 -1 6 -6 2 -10 9 -6 14 3 5 0 9 -7 9 -8 0 -8 4 1 15 13 16 35
21 26 6 -9 -14 23 -6 37 9 10 12 9 12 -5 1 -16 -12 -22 -9 -19 12 2 14 -27 7
-33 -9z"/>
<path d="M5666 3799 c3 -5 20 -16 37 -24 25 -12 27 -14 7 -9 -24 5 -25 5 -5
-11 28 -23 55 -37 55 -29 0 4 -8 13 -17 21 -16 13 -16 13 7 7 35 -9 23 0 -38
29 -28 14 -49 21 -46 16z"/>
<path d="M1552 3738 c-67 -35 -131 -71 -141 -80 -11 -9 -29 -22 -41 -28 -12
-6 -19 -14 -16 -17 5 -5 82 42 96 58 3 3 52 30 110 58 93 47 134 71 119 71 -2
0 -59 -28 -127 -62z"/>
<path d="M1633 3747 c-18 -12 -33 -27 -33 -34 0 -20 -20 -26 -38 -11 -15 12
-16 11 -4 -4 12 -15 10 -20 -20 -38 -18 -11 -37 -20 -42 -20 -5 0 -7 -2 -5 -5
3 -2 21 0 40 5 23 6 52 30 87 70 29 33 52 60 50 59 -2 0 -18 -10 -35 -22z"/>
<path d="M1213 3743 c9 -2 23 -2 30 0 6 3 -1 5 -18 5 -16 0 -22 -2 -12 -5z"/>
<path d="M5795 3737 c22 -18 55 -22 55 -7 0 6 -9 10 -19 10 -11 0 -28 3 -38 6
-16 6 -16 5 2 -9z"/>
<path d="M6124 3642 c4 -7 1 -12 -8 -12 -19 0 -20 -13 -5 -42 7 -14 8 -23 1
-30 -6 -6 -8 -17 -5 -24 3 -9 19 1 49 34 24 26 43 50 44 53 0 4 -11 10 -24 13
-13 3 -32 9 -42 13 -12 4 -15 3 -10 -5z"/>
<path d="M1448 3623 c6 -2 18 -2 25 0 6 3 1 5 -13 5 -14 0 -19 -2 -12 -5z"/>
<path d="M6863 3480 c-30 -12 -29 -27 6 -82 28 -44 31 -46 63 -38 73 17 89 37
63 76 -26 40 -89 61 -132 44z"/>
<path d="M2015 3450 c3 -5 8 -10 11 -10 2 0 4 5 4 10 0 6 -5 10 -11 10 -5 0
-7 -4 -4 -10z"/>
<path d="M2059 3443 c6 -13 19 -23 28 -23 9 0 14 1 12 3 -2 1 -15 11 -28 22
l-24 20 12 -22z"/>
<path d="M2580 3440 c-23 -7 -23 -8 -3 -9 12 -1 25 4 28 9 3 6 5 10 3 9 -2 -1
-14 -5 -28 -9z"/>
<path d="M2320 3430 c0 -5 5 -10 10 -10 6 0 10 5 10 10 0 6 -4 10 -10 10 -5 0
-10 -4 -10 -10z"/>
<path d="M2528 3423 c7 -3 16 -2 19 1 4 3 -2 6 -13 5 -11 0 -14 -3 -6 -6z"/>
<path d="M2363 3409 c-24 -4 -51 -13 -60 -19 -16 -10 -16 -11 2 -4 11 4 46 9
79 12 37 3 53 8 45 13 -8 5 -16 8 -19 8 -3 -1 -24 -5 -47 -10z"/>
<path d="M2463 3413 c9 -2 23 -2 30 0 6 3 -1 5 -18 5 -16 0 -22 -2 -12 -5z"/>
<path d="M6556 3354 c-10 -25 -7 -29 7 -12 6 9 23 19 37 21 21 4 21 4 -6 6
-21 1 -34 -5 -38 -15z"/>
<path d="M2440 3329 c-20 -11 -47 -17 -62 -14 -21 3 -26 1 -21 -10 3 -8 -1
-15 -8 -15 -7 0 -10 -2 -8 -5 8 -7 112 34 129 51 18 18 14 17 -30 -7z"/>
<path d="M6687 3273 c-63 -22 -160 -44 -249 -58 -29 -5 -38 -11 -38 -25 0 -16
-5 -19 -30 -14 -22 5 -31 2 -36 -9 -3 -10 -12 -13 -22 -10 -9 4 -14 3 -11 -1
4 -4 20 -9 35 -11 16 -3 52 -8 81 -13 41 -7 53 -6 57 5 3 8 1 11 -4 8 -5 -3
-18 -1 -27 4 -15 9 -11 10 18 11 49 0 105 -20 87 -31 -7 -5 22 -6 67 -3 53 4
110 1 172 -10 125 -22 225 -30 259 -22 27 7 27 8 9 18 -10 6 -69 15 -130 19
-60 5 -126 10 -145 12 -19 2 -64 4 -100 6 l-65 2 75 69 c41 38 72 71 70 73 -3
2 -36 -6 -73 -20z m-62 -73 c-22 -23 -38 -30 -66 -30 -77 0 -75 13 7 36 43 12
81 23 83 23 3 1 -8 -12 -24 -29z m408 -97 c-13 -2 -35 -2 -50 0 -16 2 -5 4 22
4 28 0 40 -2 28 -4z"/>
<path d="M2300 3270 c-8 -5 -10 -10 -5 -10 6 0 17 5 25 10 8 5 11 10 5 10 -5
0 -17 -5 -25 -10z"/>
<path d="M5258 3178 c-8 -13 -18 -33 -22 -44 -6 -19 -1 -23 43 -34 28 -6 56
-10 62 -8 7 2 -14 10 -46 17 -32 7 -53 16 -48 20 9 6 36 71 29 71 -2 0 -10
-10 -18 -22z"/>
<path d="M6153 3141 c-6 -22 -8 -39 -4 -39 3 1 38 -18 76 -43 79 -51 195 -96
270 -104 28 -3 64 -8 80 -10 19 -3 25 -2 16 4 -22 14 1 19 74 16 88 -5 105 -7
99 -17 -3 -4 5 -12 16 -18 11 -6 18 -15 16 -19 -3 -4 19 -31 48 -60 47 -46 54
-50 61 -34 14 34 14 63 -1 63 -8 0 -14 -4 -14 -10 0 -5 -5 -10 -11 -10 -5 0
-7 5 -3 12 5 7 3 8 -5 4 -7 -5 -21 0 -31 9 -19 17 -18 19 38 47 76 38 121 70
122 86 0 9 -11 5 -30 -11 -16 -14 -55 -40 -86 -57 -49 -29 -58 -31 -79 -20
-13 7 -23 17 -22 23 5 24 -95 46 -197 44 -73 -1 -117 3 -157 16 -64 20 -185
98 -181 116 1 7 -1 10 -6 7 -4 -2 -14 -1 -22 5 -12 7 -9 9 10 10 23 1 23 2 -5
9 -16 4 -37 11 -46 14 -13 6 -19 -2 -26 -33z"/>
<path d="M6422 3080 c0 -14 2 -19 5 -12 2 6 2 18 0 25 -3 6 -5 1 -5 -13z"/>
<path d="M5222 3078 c-7 -10 -3 -18 15 -32 24 -18 25 -18 15 0 -5 11 -7 25 -5
32 3 6 0 12 -5 12 -5 0 -14 -6 -20 -12z"/>
<path d="M5418 3083 c7 -3 16 -2 19 1 4 3 -2 6 -13 5 -11 0 -14 -3 -6 -6z"/>
<path d="M5336 2902 c-12 -11 -5 -17 19 -17 14 0 24 4 22 9 -4 11 -33 17 -41
8z"/>
<path d="M6995 2780 c27 -12 43 -12 25 0 -8 5 -22 9 -30 9 -10 0 -8 -3 5 -9z"/>
<path d="M7075 2755 c22 -8 51 -13 65 -13 14 0 0 6 -30 13 -69 18 -88 17 -35
0z"/>
</g>
</svg>
